<svg xml:space="preserve"
     xmlns="http://www.w3.org/2000/svg"
     xmlns:xlink="http://www.w3.org/1999/xlink"
     xmlns:html="http://www.w3.org/1999/xhtml"
id="geometry-star-x-34-44" x="0px" y="0px"
width="34.000000px" height="44.000000px"
viewBox="0 0 34.000000 44.000000" enable-background="new 0 0 34.000000 44.000000" role="img">
s
<title>
geometry-star-x-34-44
</title>
<desc>
Star-X native projection geometry
</desc>
<g id="triangular-faces">
<path id="triangular-face-1" d="M 7.034 27.5746 L 7.25098 27.7916 L 7.46796 28.0085 L 7.68494 28.2255 L 7.90193 28.4425 L 8.11891 28.6595 L 8.33589 28.8765 L 8.57678 29.0623 L 8.84253 29.2157 L 9.10828 29.3691 L 9.37402 29.5226 L 9.63977 29.676 L 9.90552 29.8294 L 10.1713 29.9829 L 10.437 30.1363 L 10.7028 30.2897 L 10.9685 30.4431 L 11.2343 30.5966 L 11.5 30.75 L 11.7657 30.9034 L 12.0315 31.0569 L 12.2972 31.2103 L 12.563 31.3637 L 12.8287 31.5171 L 13.0945 31.6706 L 13.3602 31.824 L 13.626 31.9774 L 13.8917 32.1309 L 14.1575 32.2843 L 14.4232 32.4377 L 14.7046 32.5534 L 15.001 32.6329 L 15.2974 32.7123 L 15.5938 32.7917 L 15.8902 32.8711 L 16.1866 32.9505 L 16.483 33.03 L 16.5692 32.7084 L 16.6553 32.3868 L 16.7415 32.0652 L 16.8277 31.7436 L 16.9138 31.4221 L 17 31.1005 L 17 30.7968 L 17 30.4931 L 17 30.1895 L 17 29.8858 L 17 29.5821 L 17 29.2784 L 17 28.9748 L 17 28.6711 L 17 28.3674 L 17 28.0637 L 17 27.76 L 17 27.4564 L 17 27.1527 L 17 26.849 L 17 26.5453 L 17 26.2417 L 17 25.938 L 17 25.6343 L 17 25.3306 L 17 25.027 L 17 24.7233 L 17 24.4196 L 17 24.1159 L 16.9271 23.7767 L 16.8531 23.5005 L 16.7791 23.2242 L 16.7051 22.948 L 16.631 22.6717 L 16.557 22.3954 L 16.483 22.1192 L 16.483 22.1192 L 16.483 22.1192 L 16.2067 22.1932 L 15.9305 22.2672 L 15.6542 22.3413 L 15.378 22.4153 L 15.1017 22.4893 L 14.8255 22.5633 L 14.4953 22.6698 L 14.2323 22.8217 L 13.9693 22.9735 L 13.7063 23.1253 L 13.4433 23.2772 L 13.1803 23.429 L 12.9173 23.5809 L 12.6543 23.7327 L 12.3913 23.8845 L 12.1284 24.0364 L 11.8654 24.1882 L 11.6024 24.34 L 11.3394 24.4919 L 11.0764 24.6437 L 10.8134 24.7956 L 10.5504 24.9474 L 10.2874 25.0992 L 10.0244 25.2511 L 9.76143 25.4029 L 9.49844 25.5548 L 9.23544 25.7066 L 8.97245 25.8584 L 8.70946 26.0103 L 8.44647 26.1621 L 8.21106 26.3975 L 7.97565 26.6329 L 7.74024 26.8683 L 7.50482 27.1038 L 7.26941 27.3392 L 7.034 27.5746 Z" style="fill:rgb(242,242,242); fill-opacity:0.55; stroke:rgb(128,128,128); stroke-opacity:0.6; stroke-width:0.04" />
<path id="triangular-face-6" d="M 7.034 27.5746 L 7.25098 27.7916 L 7.46796 28.0085 L 7.68494 28.2255 L 7.90193 28.4425 L 8.11891 28.6595 L 8.33589 28.8765 L 8.57678 29.0623 L 8.84253 29.2157 L 9.10828 29.3691 L 9.37402 29.5226 L 9.63977 29.676 L 9.90552 29.8294 L 10.1713 29.9829 L 10.437 30.1363 L 10.7028 30.2897 L 10.9685 30.4431 L 11.2343 30.5966 L 11.5 30.75 L 11.7657 30.9034 L 12.0315 31.0569 L 12.2972 31.2103 L 12.563 31.3637 L 12.8287 31.5171 L 13.0945 31.6706 L 13.3602 31.824 L 13.626 31.9774 L 13.8917 32.1309 L 14.1575 32.2843 L 14.4232 32.4377 L 14.7046 32.5534 L 15.001 32.6329 L 15.2974 32.7123 L 15.5938 32.7917 L 15.8902 32.8711 L 16.1866 32.9505 L 16.483 33.03 L 15.7306 34.1608 L 15.4952 34.3962 L 15.2598 34.6317 L 15.0244 34.8671 L 14.7889 35.1025 L 14.5535 35.3379 L 14.2905 35.4897 L 14.0275 35.6416 L 13.7646 35.7934 L 13.5016 35.9452 L 13.2386 36.0971 L 12.9756 36.2489 L 12.7126 36.4008 L 12.4496 36.5526 L 12.1866 36.7044 L 11.9236 36.8563 L 11.6606 37.0081 L 11.3976 37.16 L 11.1346 37.3118 L 10.8716 37.4636 L 10.6087 37.6155 L 10.3457 37.7673 L 10.0827 37.9191 L 9.81968 38.071 L 9.55669 38.2228 L 9.2937 38.3747 L 9.03071 38.5265 L 8.76772 38.6783 L 8.50472 38.8302 L 8.17453 38.9367 L 7.89827 39.0107 L 7.62202 39.0847 L 7.34576 39.1587 L 7.06951 39.2328 L 6.79325 39.3068 L 6.517 39.3808 L 6.517 39.3808 L 6.517 39.3808 L 6.44298 39.1046 L 6.36896 38.8283 L 6.29493 38.552 L 6.22091 38.2758 L 6.14689 37.9995 L 6.07287 37.7233 L 6 37.3841 L 6 37.0804 L 6 36.7767 L 6 36.473 L 6 36.1694 L 6 35.8657 L 6 35.562 L 6 35.2583 L 6 34.9547 L 6 34.651 L 6 34.3473 L 6 34.0436 L 6 33.74 L 6 33.4363 L 6 33.1326 L 6 32.8289 L 6 32.5252 L 6 32.2216 L 6 31.9179 L 6 31.6142 L 6 31.3105 L 6 31.0069 L 6 30.7032 L 6 30.3995 L 6.08617 30.0779 L 6.17233 29.7564 L 6.2585 29.4348 L 6.34467 29.1132 L 6.43083 28.7916 L 7.034 27.5746 Z" style="fill:rgb(242,242,242); fill-opacity:0.55; stroke:rgb(128,128,128); stroke-opacity:0.6; stroke-width:0.04" />
<path id="triangular-face-2" d="M 17.517 33.03 L 17.8134 32.9505 L 18.1098 32.8711 L 18.4062 32.7917 L 18.7026 32.7123 L 18.999 32.6329 L 19.2954 32.5534 L 19.5768 32.4377 L 19.8425 32.2843 L 20.1083 32.1309 L 20.374 31.9774 L 20.6398 31.824 L 20.9055 31.6706 L 21.1713 31.5171 L 21.437 31.3637 L 21.7028 31.2103 L 21.9685 31.0569 L 22.2343 30.9034 L 22.5 30.75 L 22.7657 30.5966 L 23.0315 30.4431 L 23.2972 30.2897 L 23.563 30.1363 L 23.8287 29.9829 L 24.0945 29.8294 L 24.3602 29.676 L 24.626 29.5226 L 24.8917 29.3691 L 25.1575 29.2157 L 25.4232 29.0623 L 25.6641 28.8765 L 25.8811 28.6595 L 26.0981 28.4425 L 26.3151 28.2255 L 26.532 28.0085 L 26.749 27.7916 L 26.966 27.5746 L 26.7306 27.3392 L 26.4952 27.1038 L 26.2598 26.8683 L 26.0244 26.6329 L 25.7889 26.3975 L 25.5535 26.1621 L 25.2905 26.0103 L 25.0275 25.8584 L 24.7646 25.7066 L 24.5016 25.5548 L 24.2386 25.4029 L 23.9756 25.2511 L 23.7126 25.0992 L 23.4496 24.9474 L 23.1866 24.7956 L 22.9236 24.6437 L 22.6606 24.4919 L 22.3976 24.34 L 22.1346 24.1882 L 21.8716 24.0364 L 21.6087 23.8845 L 21.3457 23.7327 L 21.0827 23.5809 L 20.8197 23.429 L 20.5567 23.2772 L 20.2937 23.1253 L 20.0307 22.9735 L 19.7677 22.8217 L 19.5047 22.6698 L 19.1745 22.5633 L 18.8983 22.4893 L 18.622 22.4153 L 18.3458 22.3413 L 18.0695 22.2672 L 17.7933 22.1932 L 17.517 22.1192 L 17.517 22.1192 L 17.517 22.1192 L 17.443 22.3954 L 17.369 22.6717 L 17.2949 22.948 L 17.2209 23.2242 L 17.1469 23.5005 L 17.0729 23.7767 L 17 24.1159 L 17 24.4196 L 17 24.7233 L 17 25.027 L 17 25.3306 L 17 25.6343 L 17 25.938 L 17 26.2417 L 17 26.5453 L 17 26.849 L 17 27.1527 L 17 27.4564 L 17 27.76 L 17 28.0637 L 17 28.3674 L 17 28.6711 L 17 28.9748 L 17 29.2784 L 17 29.5821 L 17 29.8858 L 17 30.1895 L 17 30.4931 L 17 30.7968 L 17 31.1005 L 17.0862 31.4221 L 17.1723 31.7436 L 17.2585 32.0652 L 17.3447 32.3868 L 17.4308 32.7084 L 17.517 33.03 Z" style="fill:rgb(242,242,242); fill-opacity:0.55; stroke:rgb(128,128,128); stroke-opacity:0.6; stroke-width:0.04" />
<path id="triangular-face-7" d="M 17.517 33.03 L 17.8134 32.9505 L 18.1098 32.8711 L 18.4062 32.7917 L 18.7026 32.7123 L 18.999 32.6329 L 19.2954 32.5534 L 19.5768 32.4377 L 19.8425 32.2843 L 20.1083 32.1309 L 20.374 31.9774 L 20.6398 31.824 L 20.9055 31.6706 L 21.1713 31.5171 L 21.437 31.3637 L 21.7028 31.2103 L 21.9685 31.0569 L 22.2343 30.9034 L 22.5 30.75 L 22.7657 30.5966 L 23.0315 30.4431 L 23.2972 30.2897 L 23.563 30.1363 L 23.8287 29.9829 L 24.0945 29.8294 L 24.3602 29.676 L 24.626 29.5226 L 24.8917 29.3691 L 25.1575 29.2157 L 25.4232 29.0623 L 25.6641 28.8765 L 25.8811 28.6595 L 26.0981 28.4425 L 26.3151 28.2255 L 26.532 28.0085 L 26.749 27.7916 L 26.966 27.5746 L 27.5692 28.7916 L 27.6553 29.1132 L 27.7415 29.4348 L 27.8277 29.7564 L 27.9138 30.0779 L 28 30.3995 L 28 30.7032 L 28 31.0069 L 28 31.3105 L 28 31.6142 L 28 31.9179 L 28 32.2216 L 28 32.5252 L 28 32.8289 L 28 33.1326 L 28 33.4363 L 28 33.74 L 28 34.0436 L 28 34.3473 L 28 34.651 L 28 34.9547 L 28 35.2583 L 28 35.562 L 28 35.8657 L 28 36.1694 L 28 36.473 L 28 36.7767 L 28 37.0804 L 28 37.3841 L 27.9271 37.7233 L 27.8531 37.9995 L 27.7791 38.2758 L 27.7051 38.552 L 27.631 38.8283 L 27.557 39.1046 L 27.483 39.3808 L 27.483 39.3808 L 27.483 39.3808 L 27.2067 39.3068 L 26.9305 39.2328 L 26.6542 39.1587 L 26.378 39.0847 L 26.1017 39.0107 L 25.8255 38.9367 L 25.4953 38.8302 L 25.2323 38.6783 L 24.9693 38.5265 L 24.7063 38.3747 L 24.4433 38.2228 L 24.1803 38.071 L 23.9173 37.9191 L 23.6543 37.7673 L 23.3913 37.6155 L 23.1284 37.4636 L 22.8654 37.3118 L 22.6024 37.16 L 22.3394 37.0081 L 22.0764 36.8563 L 21.8134 36.7044 L 21.5504 36.5526 L 21.2874 36.4008 L 21.0244 36.2489 L 20.7614 36.0971 L 20.4984 35.9452 L 20.2354 35.7934 L 19.9725 35.6416 L 19.7095 35.4897 L 19.4465 35.3379 L 19.2111 35.1025 L 18.9756 34.8671 L 18.7402 34.6317 L 18.5048 34.3962 L 18.2694 34.1608 L 17.517 33.03 Z" style="fill:rgb(242,242,242); fill-opacity:0.55; stroke:rgb(128,128,128); stroke-opacity:0.6; stroke-width:0.04" />
<path id="triangular-face-3" d="M 26.966 16.4254 L 26.749 16.2084 L 26.532 15.9915 L 26.3151 15.7745 L 26.0981 15.5575 L 25.8811 15.3405 L 25.6641 15.1235 L 25.4232 14.9377 L 25.1575 14.7843 L 24.8917 14.6309 L 24.626 14.4774 L 24.3602 14.324 L 24.0945 14.1706 L 23.8287 14.0171 L 23.563 13.8637 L 23.2972 13.7103 L 23.0315 13.5569 L 22.7657 13.4034 L 22.5 13.25 L 22.2343 13.0966 L 21.9685 12.9431 L 21.7028 12.7897 L 21.437 12.6363 L 21.1713 12.4829 L 20.9055 12.3294 L 20.6398 12.176 L 20.374 12.0226 L 20.1083 11.8691 L 19.8425 11.7157 L 19.5768 11.5623 L 19.2954 11.4466 L 18.999 11.3671 L 18.7026 11.2877 L 18.4062 11.2083 L 18.1098 11.1289 L 17.8134 11.0495 L 17.517 10.97 L 17.4308 11.2916 L 17.3447 11.6132 L 17.2585 11.9348 L 17.1723 12.2564 L 17.0862 12.5779 L 17 12.8995 L 17 13.2032 L 17 13.5069 L 17 13.8105 L 17 14.1142 L 17 14.4179 L 17 14.7216 L 17 15.0252 L 17 15.3289 L 17 15.6326 L 17 15.9363 L 17 16.24 L 17 16.5436 L 17 16.8473 L 17 17.151 L 17 17.4547 L 17 17.7583 L 17 18.062 L 17 18.3657 L 17 18.6694 L 17 18.973 L 17 19.2767 L 17 19.5804 L 17 19.8841 L 17.0729 20.2233 L 17.1469 20.4995 L 17.2209 20.7758 L 17.2949 21.052 L 17.369 21.3283 L 17.443 21.6046 L 17.517 21.8808 L 17.517 21.8808 L 17.517 21.8808 L 17.7933 21.8068 L 18.0695 21.7328 L 18.3458 21.6587 L 18.622 21.5847 L 18.8983 21.5107 L 19.1745 21.4367 L 19.5047 21.3302 L 19.7677 21.1783 L 20.0307 21.0265 L 20.2937 20.8747 L 20.5567 20.7228 L 20.8197 20.571 L 21.0827 20.4191 L 21.3457 20.2673 L 21.6087 20.1155 L 21.8716 19.9636 L 22.1346 19.8118 L 22.3976 19.66 L 22.6606 19.5081 L 22.9236 19.3563 L 23.1866 19.2044 L 23.4496 19.0526 L 23.7126 18.9008 L 23.9756 18.7489 L 24.2386 18.5971 L 24.5016 18.4452 L 24.7646 18.2934 L 25.0275 18.1416 L 25.2905 17.9897 L 25.5535 17.8379 L 25.7889 17.6025 L 26.0244 17.3671 L 26.2598 17.1317 L 26.4952 16.8962 L 26.7306 16.6608 L 26.966 16.4254 Z" style="fill:rgb(242,242,242); fill-opacity:0.55; stroke:rgb(128,128,128); stroke-opacity:0.6; stroke-width:0.04" />
<path id="triangular-face-8" d="M 26.966 16.4254 L 26.749 16.2084 L 26.532 15.9915 L 26.3151 15.7745 L 26.0981 15.5575 L 25.8811 15.3405 L 25.6641 15.1235 L 25.4232 14.9377 L 25.1575 14.7843 L 24.8917 14.6309 L 24.626 14.4774 L 24.3602 14.324 L 24.0945 14.1706 L 23.8287 14.0171 L 23.563 13.8637 L 23.2972 13.7103 L 23.0315 13.5569 L 22.7657 13.4034 L 22.5 13.25 L 22.2343 13.0966 L 21.9685 12.9431 L 21.7028 12.7897 L 21.437 12.6363 L 21.1713 12.4829 L 20.9055 12.3294 L 20.6398 12.176 L 20.374 12.0226 L 20.1083 11.8691 L 19.8425 11.7157 L 19.5768 11.5623 L 19.2954 11.4466 L 18.999 11.3671 L 18.7026 11.2877 L 18.4062 11.2083 L 18.1098 11.1289 L 17.8134 11.0495 L 17.517 10.97 L 18.2694 9.83916 L 18.5048 9.60375 L 18.7402 9.36834 L 18.9756 9.13293 L 19.2111 8.89751 L 19.4465 8.6621 L 19.7095 8.51027 L 19.9725 8.35843 L 20.2354 8.20659 L 20.4984 8.05475 L 20.7614 7.90291 L 21.0244 7.75107 L 21.2874 7.59924 L 21.5504 7.4474 L 21.8134 7.29556 L 22.0764 7.14372 L 22.3394 6.99188 L 22.6024 6.84004 L 22.8654 6.68821 L 23.1284 6.53637 L 23.3913 6.38453 L 23.6543 6.23269 L 23.9173 6.08085 L 24.1803 5.92901 L 24.4433 5.77718 L 24.7063 5.62534 L 24.9693 5.4735 L 25.2323 5.32166 L 25.4953 5.16982 L 25.8255 5.06332 L 26.1017 4.9893 L 26.378 4.91528 L 26.6542 4.84126 L 26.9305 4.76724 L 27.2067 4.69321 L 27.483 4.61919 L 27.483 4.61919 L 27.483 4.61919 L 27.557 4.89545 L 27.631 5.1717 L 27.7051 5.44796 L 27.7791 5.72421 L 27.8531 6.00046 L 27.9271 6.27672 L 28 6.61593 L 28 6.9196 L 28 7.22328 L 28 7.52696 L 28 7.83063 L 28 8.13431 L 28 8.43799 L 28 8.74166 L 28 9.04534 L 28 9.34901 L 28 9.65269 L 28 9.95637 L 28 10.26 L 28 10.5637 L 28 10.8674 L 28 11.1711 L 28 11.4748 L 28 11.7784 L 28 12.0821 L 28 12.3858 L 28 12.6895 L 28 12.9931 L 28 13.2968 L 28 13.6005 L 27.9138 13.9221 L 27.8277 14.2436 L 27.7415 14.5652 L 27.6553 14.8868 L 27.5692 15.2084 L 26.966 16.4254 Z" style="fill:rgb(242,242,242); fill-opacity:0.55; stroke:rgb(128,128,128); stroke-opacity:0.6; stroke-width:0.04" />
<path id="triangular-face-4" d="M 16.483 10.97 L 16.1866 11.0495 L 15.8902 11.1289 L 15.5938 11.2083 L 15.2974 11.2877 L 15.001 11.3671 L 14.7046 11.4466 L 14.4232 11.5623 L 14.1575 11.7157 L 13.8917 11.8691 L 13.626 12.0226 L 13.3602 12.176 L 13.0945 12.3294 L 12.8287 12.4829 L 12.563 12.6363 L 12.2972 12.7897 L 12.0315 12.9431 L 11.7657 13.0966 L 11.5 13.25 L 11.2343 13.4034 L 10.9685 13.5569 L 10.7028 13.7103 L 10.437 13.8637 L 10.1713 14.0171 L 9.90552 14.1706 L 9.63977 14.324 L 9.37402 14.4774 L 9.10828 14.6309 L 8.84253 14.7843 L 8.57678 14.9377 L 8.33589 15.1235 L 8.11891 15.3405 L 7.90193 15.5575 L 7.68494 15.7745 L 7.46796 15.9915 L 7.25098 16.2084 L 7.034 16.4254 L 7.26941 16.6608 L 7.50482 16.8962 L 7.74024 17.1317 L 7.97565 17.3671 L 8.21106 17.6025 L 8.44647 17.8379 L 8.70946 17.9897 L 8.97245 18.1416 L 9.23544 18.2934 L 9.49844 18.4452 L 9.76143 18.5971 L 10.0244 18.7489 L 10.2874 18.9008 L 10.5504 19.0526 L 10.8134 19.2044 L 11.0764 19.3563 L 11.3394 19.5081 L 11.6024 19.66 L 11.8654 19.8118 L 12.1284 19.9636 L 12.3913 20.1155 L 12.6543 20.2673 L 12.9173 20.4191 L 13.1803 20.571 L 13.4433 20.7228 L 13.7063 20.8747 L 13.9693 21.0265 L 14.2323 21.1783 L 14.4953 21.3302 L 14.8255 21.4367 L 15.1017 21.5107 L 15.378 21.5847 L 15.6542 21.6587 L 15.9305 21.7328 L 16.2067 21.8068 L 16.483 21.8808 L 16.483 21.8808 L 16.483 21.8808 L 16.557 21.6046 L 16.631 21.3283 L 16.7051 21.052 L 16.7791 20.7758 L 16.8531 20.4995 L 16.9271 20.2233 L 17 19.8841 L 17 19.5804 L 17 19.2767 L 17 18.973 L 17 18.6694 L 17 18.3657 L 17 18.062 L 17 17.7583 L 17 17.4547 L 17 17.151 L 17 16.8473 L 17 16.5436 L 17 16.24 L 17 15.9363 L 17 15.6326 L 17 15.3289 L 17 15.0252 L 17 14.7216 L 17 14.4179 L 17 14.1142 L 17 13.8105 L 17 13.5069 L 17 13.2032 L 17 12.8995 L 16.9138 12.5779 L 16.8277 12.2564 L 16.7415 11.9348 L 16.6553 11.6132 L 16.5692 11.2916 L 16.483 10.97 Z" style="fill:rgb(242,242,242); fill-opacity:0.55; stroke:rgb(128,128,128); stroke-opacity:0.6; stroke-width:0.04" />
<path id="triangular-face-5" d="M 16.483 10.97 L 16.1866 11.0495 L 15.8902 11.1289 L 15.5938 11.2083 L 15.2974 11.2877 L 15.001 11.3671 L 14.7046 11.4466 L 14.4232 11.5623 L 14.1575 11.7157 L 13.8917 11.8691 L 13.626 12.0226 L 13.3602 12.176 L 13.0945 12.3294 L 12.8287 12.4829 L 12.563 12.6363 L 12.2972 12.7897 L 12.0315 12.9431 L 11.7657 13.0966 L 11.5 13.25 L 11.2343 13.4034 L 10.9685 13.5569 L 10.7028 13.7103 L 10.437 13.8637 L 10.1713 14.0171 L 9.90552 14.1706 L 9.63977 14.324 L 9.37402 14.4774 L 9.10828 14.6309 L 8.84253 14.7843 L 8.57678 14.9377 L 8.33589 15.1235 L 8.11891 15.3405 L 7.90193 15.5575 L 7.68494 15.7745 L 7.46796 15.9915 L 7.25098 16.2084 L 7.034 16.4254 L 6.43083 15.2084 L 6.34467 14.8868 L 6.2585 14.5652 L 6.17233 14.2436 L 6.08617 13.9221 L 6 13.6005 L 6 13.2968 L 6 12.9931 L 6 12.6895 L 6 12.3858 L 6 12.0821 L 6 11.7784 L 6 11.4748 L 6 11.1711 L 6 10.8674 L 6 10.5637 L 6 10.26 L 6 9.95637 L 6 9.65269 L 6 9.34901 L 6 9.04534 L 6 8.74166 L 6 8.43799 L 6 8.13431 L 6 7.83063 L 6 7.52696 L 6 7.22328 L 6 6.9196 L 6 6.61593 L 6.07287 6.27672 L 6.14689 6.00046 L 6.22091 5.72421 L 6.29493 5.44796 L 6.36896 5.1717 L 6.44298 4.89545 L 6.517 4.61919 L 6.517 4.61919 L 6.517 4.61919 L 6.79325 4.69321 L 7.06951 4.76724 L 7.34576 4.84126 L 7.62202 4.91528 L 7.89827 4.9893 L 8.17453 5.06332 L 8.50472 5.16982 L 8.76772 5.32166 L 9.03071 5.4735 L 9.2937 5.62534 L 9.55669 5.77718 L 9.81968 5.92901 L 10.0827 6.08085 L 10.3457 6.23269 L 10.6087 6.38453 L 10.8716 6.53637 L 11.1346 6.68821 L 11.3976 6.84004 L 11.6606 6.99188 L 11.9236 7.14372 L 12.1866 7.29556 L 12.4496 7.4474 L 12.7126 7.59924 L 12.9756 7.75107 L 13.2386 7.90291 L 13.5016 8.05475 L 13.7646 8.20659 L 14.0275 8.35843 L 14.2905 8.51027 L 14.5535 8.6621 L 14.7889 8.89751 L 15.0244 9.13293 L 15.2598 9.36834 L 15.4952 9.60375 L 15.7306 9.83916 L 16.483 10.97 Z" style="fill:rgb(242,242,242); fill-opacity:0.55; stroke:rgb(128,128,128); stroke-opacity:0.6; stroke-width:0.04" />
</g>
<g id="quadrants">
<path id="quadrant-1" d="M 0 0 L 8.5 0 L 8.5 44 L 0 44 Z" style="fill:rgb(1,0,0); fill-opacity:0; stroke:rgb(0,0,255); stroke-opacity:0.65; stroke-width:0.08" />
<path id="quadrant-2" d="M 8.5 0 L 17 0 L 17 44 L 8.5 44 Z" style="fill:rgb(1,0,0); fill-opacity:0; stroke:rgb(0,0,255); stroke-opacity:0.65; stroke-width:0.08" />
<path id="quadrant-3" d="M 17 0 L 25.5 0 L 25.5 44 L 17 44 Z" style="fill:rgb(1,0,0); fill-opacity:0; stroke:rgb(0,0,255); stroke-opacity:0.65; stroke-width:0.08" />
<path id="quadrant-4" d="M 25.5 0 L 34 0 L 34 44 L 25.5 44 Z" style="fill:rgb(1,0,0); fill-opacity:0; stroke:rgb(0,0,255); stroke-opacity:0.65; stroke-width:0.08" />
</g>
<g id="octants">
<path id="octant-1" d="M 7.034 27.5746 L 7.25098 27.7916 L 7.46796 28.0085 L 7.68494 28.2255 L 7.90193 28.4425 L 8.11891 28.6595 L 8.33589 28.8765 L 8.57678 29.0623 L 8.84253 29.2157 L 9.10828 29.3691 L 9.37402 29.5226 L 9.63977 29.676 L 9.90552 29.8294 L 10.1713 29.9829 L 10.437 30.1363 L 10.7028 30.2897 L 10.9685 30.4431 L 11.2343 30.5966 L 11.5 30.75 L 11.7657 30.9034 L 12.0315 31.0569 L 12.2972 31.2103 L 12.563 31.3637 L 12.8287 31.5171 L 13.0945 31.6706 L 13.3602 31.824 L 13.626 31.9774 L 13.8917 32.1309 L 14.1575 32.2843 L 14.4232 32.4377 L 14.7046 32.5534 L 15.001 32.6329 L 15.2974 32.7123 L 15.5938 32.7917 L 15.8902 32.8711 L 16.1866 32.9505 L 16.483 33.03 L 16.5692 32.7084 L 16.6553 32.3868 L 16.7415 32.0652 L 16.8277 31.7436 L 16.9138 31.4221 L 17 31.1005 L 17 30.7968 L 17 30.4931 L 17 30.1895 L 17 29.8858 L 17 29.5821 L 17 29.2784 L 17 28.9748 L 17 28.6711 L 17 28.3674 L 17 28.0637 L 17 27.76 L 17 27.4564 L 17 27.1527 L 17 26.849 L 17 26.5453 L 17 26.2417 L 17 25.938 L 17 25.6343 L 17 25.3306 L 17 25.027 L 17 24.7233 L 17 24.4196 L 17 24.1159 L 16.9271 23.7767 L 16.8531 23.5005 L 16.7791 23.2242 L 16.7051 22.948 L 16.631 22.6717 L 16.557 22.3954 L 16.483 22.1192 L 16.483 22.1192 L 16.483 22.1192 L 16.2067 22.1932 L 15.9305 22.2672 L 15.6542 22.3413 L 15.378 22.4153 L 15.1017 22.4893 L 14.8255 22.5633 L 14.4953 22.6698 L 14.2323 22.8217 L 13.9693 22.9735 L 13.7063 23.1253 L 13.4433 23.2772 L 13.1803 23.429 L 12.9173 23.5809 L 12.6543 23.7327 L 12.3913 23.8845 L 12.1284 24.0364 L 11.8654 24.1882 L 11.6024 24.34 L 11.3394 24.4919 L 11.0764 24.6437 L 10.8134 24.7956 L 10.5504 24.9474 L 10.2874 25.0992 L 10.0244 25.2511 L 9.76143 25.4029 L 9.49844 25.5548 L 9.23544 25.7066 L 8.97245 25.8584 L 8.70946 26.0103 L 8.44647 26.1621 L 8.21106 26.3975 L 7.97565 26.6329 L 7.74024 26.8683 L 7.50482 27.1038 L 7.26941 27.3392 L 7.034 27.5746 Z" style="fill:rgb(1,0,0); fill-opacity:0; stroke:rgb(0,0,0); stroke-opacity:0.9; stroke-width:0.12" />
<path id="octant-6" d="M 7.034 27.5746 L 7.25098 27.7916 L 7.46796 28.0085 L 7.68494 28.2255 L 7.90193 28.4425 L 8.11891 28.6595 L 8.33589 28.8765 L 8.57678 29.0623 L 8.84253 29.2157 L 9.10828 29.3691 L 9.37402 29.5226 L 9.63977 29.676 L 9.90552 29.8294 L 10.1713 29.9829 L 10.437 30.1363 L 10.7028 30.2897 L 10.9685 30.4431 L 11.2343 30.5966 L 11.5 30.75 L 11.7657 30.9034 L 12.0315 31.0569 L 12.2972 31.2103 L 12.563 31.3637 L 12.8287 31.5171 L 13.0945 31.6706 L 13.3602 31.824 L 13.626 31.9774 L 13.8917 32.1309 L 14.1575 32.2843 L 14.4232 32.4377 L 14.7046 32.5534 L 15.001 32.6329 L 15.2974 32.7123 L 15.5938 32.7917 L 15.8902 32.8711 L 16.1866 32.9505 L 16.483 33.03 L 15.7306 34.1608 L 15.4952 34.3962 L 15.2598 34.6317 L 15.0244 34.8671 L 14.7889 35.1025 L 14.5535 35.3379 L 14.2905 35.4897 L 14.0275 35.6416 L 13.7646 35.7934 L 13.5016 35.9452 L 13.2386 36.0971 L 12.9756 36.2489 L 12.7126 36.4008 L 12.4496 36.5526 L 12.1866 36.7044 L 11.9236 36.8563 L 11.6606 37.0081 L 11.3976 37.16 L 11.1346 37.3118 L 10.8716 37.4636 L 10.6087 37.6155 L 10.3457 37.7673 L 10.0827 37.9191 L 9.81968 38.071 L 9.55669 38.2228 L 9.2937 38.3747 L 9.03071 38.5265 L 8.76772 38.6783 L 8.50472 38.8302 L 8.17453 38.9367 L 7.89827 39.0107 L 7.62202 39.0847 L 7.34576 39.1587 L 7.06951 39.2328 L 6.79325 39.3068 L 6.517 39.3808 L 6.517 39.3808 L 6.517 39.3808 L 6.44298 39.1046 L 6.36896 38.8283 L 6.29493 38.552 L 6.22091 38.2758 L 6.14689 37.9995 L 6.07287 37.7233 L 6 37.3841 L 6 37.0804 L 6 36.7767 L 6 36.473 L 6 36.1694 L 6 35.8657 L 6 35.562 L 6 35.2583 L 6 34.9547 L 6 34.651 L 6 34.3473 L 6 34.0436 L 6 33.74 L 6 33.4363 L 6 33.1326 L 6 32.8289 L 6 32.5252 L 6 32.2216 L 6 31.9179 L 6 31.6142 L 6 31.3105 L 6 31.0069 L 6 30.7032 L 6 30.3995 L 6.08617 30.0779 L 6.17233 29.7564 L 6.2585 29.4348 L 6.34467 29.1132 L 6.43083 28.7916 L 7.034 27.5746 Z" style="fill:rgb(1,0,0); fill-opacity:0; stroke:rgb(0,0,0); stroke-opacity:0.9; stroke-width:0.12" />
<path id="octant-2" d="M 17.517 33.03 L 17.8134 32.9505 L 18.1098 32.8711 L 18.4062 32.7917 L 18.7026 32.7123 L 18.999 32.6329 L 19.2954 32.5534 L 19.5768 32.4377 L 19.8425 32.2843 L 20.1083 32.1309 L 20.374 31.9774 L 20.6398 31.824 L 20.9055 31.6706 L 21.1713 31.5171 L 21.437 31.3637 L 21.7028 31.2103 L 21.9685 31.0569 L 22.2343 30.9034 L 22.5 30.75 L 22.7657 30.5966 L 23.0315 30.4431 L 23.2972 30.2897 L 23.563 30.1363 L 23.8287 29.9829 L 24.0945 29.8294 L 24.3602 29.676 L 24.626 29.5226 L 24.8917 29.3691 L 25.1575 29.2157 L 25.4232 29.0623 L 25.6641 28.8765 L 25.8811 28.6595 L 26.0981 28.4425 L 26.3151 28.2255 L 26.532 28.0085 L 26.749 27.7916 L 26.966 27.5746 L 26.7306 27.3392 L 26.4952 27.1038 L 26.2598 26.8683 L 26.0244 26.6329 L 25.7889 26.3975 L 25.5535 26.1621 L 25.2905 26.0103 L 25.0275 25.8584 L 24.7646 25.7066 L 24.5016 25.5548 L 24.2386 25.4029 L 23.9756 25.2511 L 23.7126 25.0992 L 23.4496 24.9474 L 23.1866 24.7956 L 22.9236 24.6437 L 22.6606 24.4919 L 22.3976 24.34 L 22.1346 24.1882 L 21.8716 24.0364 L 21.6087 23.8845 L 21.3457 23.7327 L 21.0827 23.5809 L 20.8197 23.429 L 20.5567 23.2772 L 20.2937 23.1253 L 20.0307 22.9735 L 19.7677 22.8217 L 19.5047 22.6698 L 19.1745 22.5633 L 18.8983 22.4893 L 18.622 22.4153 L 18.3458 22.3413 L 18.0695 22.2672 L 17.7933 22.1932 L 17.517 22.1192 L 17.517 22.1192 L 17.517 22.1192 L 17.443 22.3954 L 17.369 22.6717 L 17.2949 22.948 L 17.2209 23.2242 L 17.1469 23.5005 L 17.0729 23.7767 L 17 24.1159 L 17 24.4196 L 17 24.7233 L 17 25.027 L 17 25.3306 L 17 25.6343 L 17 25.938 L 17 26.2417 L 17 26.5453 L 17 26.849 L 17 27.1527 L 17 27.4564 L 17 27.76 L 17 28.0637 L 17 28.3674 L 17 28.6711 L 17 28.9748 L 17 29.2784 L 17 29.5821 L 17 29.8858 L 17 30.1895 L 17 30.4931 L 17 30.7968 L 17 31.1005 L 17.0862 31.4221 L 17.1723 31.7436 L 17.2585 32.0652 L 17.3447 32.3868 L 17.4308 32.7084 L 17.517 33.03 Z" style="fill:rgb(1,0,0); fill-opacity:0; stroke:rgb(0,0,0); stroke-opacity:0.9; stroke-width:0.12" />
<path id="octant-7" d="M 17.517 33.03 L 17.8134 32.9505 L 18.1098 32.8711 L 18.4062 32.7917 L 18.7026 32.7123 L 18.999 32.6329 L 19.2954 32.5534 L 19.5768 32.4377 L 19.8425 32.2843 L 20.1083 32.1309 L 20.374 31.9774 L 20.6398 31.824 L 20.9055 31.6706 L 21.1713 31.5171 L 21.437 31.3637 L 21.7028 31.2103 L 21.9685 31.0569 L 22.2343 30.9034 L 22.5 30.75 L 22.7657 30.5966 L 23.0315 30.4431 L 23.2972 30.2897 L 23.563 30.1363 L 23.8287 29.9829 L 24.0945 29.8294 L 24.3602 29.676 L 24.626 29.5226 L 24.8917 29.3691 L 25.1575 29.2157 L 25.4232 29.0623 L 25.6641 28.8765 L 25.8811 28.6595 L 26.0981 28.4425 L 26.3151 28.2255 L 26.532 28.0085 L 26.749 27.7916 L 26.966 27.5746 L 27.5692 28.7916 L 27.6553 29.1132 L 27.7415 29.4348 L 27.8277 29.7564 L 27.9138 30.0779 L 28 30.3995 L 28 30.7032 L 28 31.0069 L 28 31.3105 L 28 31.6142 L 28 31.9179 L 28 32.2216 L 28 32.5252 L 28 32.8289 L 28 33.1326 L 28 33.4363 L 28 33.74 L 28 34.0436 L 28 34.3473 L 28 34.651 L 28 34.9547 L 28 35.2583 L 28 35.562 L 28 35.8657 L 28 36.1694 L 28 36.473 L 28 36.7767 L 28 37.0804 L 28 37.3841 L 27.9271 37.7233 L 27.8531 37.9995 L 27.7791 38.2758 L 27.7051 38.552 L 27.631 38.8283 L 27.557 39.1046 L 27.483 39.3808 L 27.483 39.3808 L 27.483 39.3808 L 27.2067 39.3068 L 26.9305 39.2328 L 26.6542 39.1587 L 26.378 39.0847 L 26.1017 39.0107 L 25.8255 38.9367 L 25.4953 38.8302 L 25.2323 38.6783 L 24.9693 38.5265 L 24.7063 38.3747 L 24.4433 38.2228 L 24.1803 38.071 L 23.9173 37.9191 L 23.6543 37.7673 L 23.3913 37.6155 L 23.1284 37.4636 L 22.8654 37.3118 L 22.6024 37.16 L 22.3394 37.0081 L 22.0764 36.8563 L 21.8134 36.7044 L 21.5504 36.5526 L 21.2874 36.4008 L 21.0244 36.2489 L 20.7614 36.0971 L 20.4984 35.9452 L 20.2354 35.7934 L 19.9725 35.6416 L 19.7095 35.4897 L 19.4465 35.3379 L 19.2111 35.1025 L 18.9756 34.8671 L 18.7402 34.6317 L 18.5048 34.3962 L 18.2694 34.1608 L 17.517 33.03 Z" style="fill:rgb(1,0,0); fill-opacity:0; stroke:rgb(0,0,0); stroke-opacity:0.9; stroke-width:0.12" />
<path id="octant-3" d="M 26.966 16.4254 L 26.749 16.2084 L 26.532 15.9915 L 26.3151 15.7745 L 26.0981 15.5575 L 25.8811 15.3405 L 25.6641 15.1235 L 25.4232 14.9377 L 25.1575 14.7843 L 24.8917 14.6309 L 24.626 14.4774 L 24.3602 14.324 L 24.0945 14.1706 L 23.8287 14.0171 L 23.563 13.8637 L 23.2972 13.7103 L 23.0315 13.5569 L 22.7657 13.4034 L 22.5 13.25 L 22.2343 13.0966 L 21.9685 12.9431 L 21.7028 12.7897 L 21.437 12.6363 L 21.1713 12.4829 L 20.9055 12.3294 L 20.6398 12.176 L 20.374 12.0226 L 20.1083 11.8691 L 19.8425 11.7157 L 19.5768 11.5623 L 19.2954 11.4466 L 18.999 11.3671 L 18.7026 11.2877 L 18.4062 11.2083 L 18.1098 11.1289 L 17.8134 11.0495 L 17.517 10.97 L 17.4308 11.2916 L 17.3447 11.6132 L 17.2585 11.9348 L 17.1723 12.2564 L 17.0862 12.5779 L 17 12.8995 L 17 13.2032 L 17 13.5069 L 17 13.8105 L 17 14.1142 L 17 14.4179 L 17 14.7216 L 17 15.0252 L 17 15.3289 L 17 15.6326 L 17 15.9363 L 17 16.24 L 17 16.5436 L 17 16.8473 L 17 17.151 L 17 17.4547 L 17 17.7583 L 17 18.062 L 17 18.3657 L 17 18.6694 L 17 18.973 L 17 19.2767 L 17 19.5804 L 17 19.8841 L 17.0729 20.2233 L 17.1469 20.4995 L 17.2209 20.7758 L 17.2949 21.052 L 17.369 21.3283 L 17.443 21.6046 L 17.517 21.8808 L 17.517 21.8808 L 17.517 21.8808 L 17.7933 21.8068 L 18.0695 21.7328 L 18.3458 21.6587 L 18.622 21.5847 L 18.8983 21.5107 L 19.1745 21.4367 L 19.5047 21.3302 L 19.7677 21.1783 L 20.0307 21.0265 L 20.2937 20.8747 L 20.5567 20.7228 L 20.8197 20.571 L 21.0827 20.4191 L 21.3457 20.2673 L 21.6087 20.1155 L 21.8716 19.9636 L 22.1346 19.8118 L 22.3976 19.66 L 22.6606 19.5081 L 22.9236 19.3563 L 23.1866 19.2044 L 23.4496 19.0526 L 23.7126 18.9008 L 23.9756 18.7489 L 24.2386 18.5971 L 24.5016 18.4452 L 24.7646 18.2934 L 25.0275 18.1416 L 25.2905 17.9897 L 25.5535 17.8379 L 25.7889 17.6025 L 26.0244 17.3671 L 26.2598 17.1317 L 26.4952 16.8962 L 26.7306 16.6608 L 26.966 16.4254 Z" style="fill:rgb(1,0,0); fill-opacity:0; stroke:rgb(0,0,0); stroke-opacity:0.9; stroke-width:0.12" />
<path id="octant-8" d="M 26.966 16.4254 L 26.749 16.2084 L 26.532 15.9915 L 26.3151 15.7745 L 26.0981 15.5575 L 25.8811 15.3405 L 25.6641 15.1235 L 25.4232 14.9377 L 25.1575 14.7843 L 24.8917 14.6309 L 24.626 14.4774 L 24.3602 14.324 L 24.0945 14.1706 L 23.8287 14.0171 L 23.563 13.8637 L 23.2972 13.7103 L 23.0315 13.5569 L 22.7657 13.4034 L 22.5 13.25 L 22.2343 13.0966 L 21.9685 12.9431 L 21.7028 12.7897 L 21.437 12.6363 L 21.1713 12.4829 L 20.9055 12.3294 L 20.6398 12.176 L 20.374 12.0226 L 20.1083 11.8691 L 19.8425 11.7157 L 19.5768 11.5623 L 19.2954 11.4466 L 18.999 11.3671 L 18.7026 11.2877 L 18.4062 11.2083 L 18.1098 11.1289 L 17.8134 11.0495 L 17.517 10.97 L 18.2694 9.83916 L 18.5048 9.60375 L 18.7402 9.36834 L 18.9756 9.13293 L 19.2111 8.89751 L 19.4465 8.6621 L 19.7095 8.51027 L 19.9725 8.35843 L 20.2354 8.20659 L 20.4984 8.05475 L 20.7614 7.90291 L 21.0244 7.75107 L 21.2874 7.59924 L 21.5504 7.4474 L 21.8134 7.29556 L 22.0764 7.14372 L 22.3394 6.99188 L 22.6024 6.84004 L 22.8654 6.68821 L 23.1284 6.53637 L 23.3913 6.38453 L 23.6543 6.23269 L 23.9173 6.08085 L 24.1803 5.92901 L 24.4433 5.77718 L 24.7063 5.62534 L 24.9693 5.4735 L 25.2323 5.32166 L 25.4953 5.16982 L 25.8255 5.06332 L 26.1017 4.9893 L 26.378 4.91528 L 26.6542 4.84126 L 26.9305 4.76724 L 27.2067 4.69321 L 27.483 4.61919 L 27.483 4.61919 L 27.483 4.61919 L 27.557 4.89545 L 27.631 5.1717 L 27.7051 5.44796 L 27.7791 5.72421 L 27.8531 6.00046 L 27.9271 6.27672 L 28 6.61593 L 28 6.9196 L 28 7.22328 L 28 7.52696 L 28 7.83063 L 28 8.13431 L 28 8.43799 L 28 8.74166 L 28 9.04534 L 28 9.34901 L 28 9.65269 L 28 9.95637 L 28 10.26 L 28 10.5637 L 28 10.8674 L 28 11.1711 L 28 11.4748 L 28 11.7784 L 28 12.0821 L 28 12.3858 L 28 12.6895 L 28 12.9931 L 28 13.2968 L 28 13.6005 L 27.9138 13.9221 L 27.8277 14.2436 L 27.7415 14.5652 L 27.6553 14.8868 L 27.5692 15.2084 L 26.966 16.4254 Z" style="fill:rgb(1,0,0); fill-opacity:0; stroke:rgb(0,0,0); stroke-opacity:0.9; stroke-width:0.12" />
<path id="octant-4" d="M 16.483 10.97 L 16.1866 11.0495 L 15.8902 11.1289 L 15.5938 11.2083 L 15.2974 11.2877 L 15.001 11.3671 L 14.7046 11.4466 L 14.4232 11.5623 L 14.1575 11.7157 L 13.8917 11.8691 L 13.626 12.0226 L 13.3602 12.176 L 13.0945 12.3294 L 12.8287 12.4829 L 12.563 12.6363 L 12.2972 12.7897 L 12.0315 12.9431 L 11.7657 13.0966 L 11.5 13.25 L 11.2343 13.4034 L 10.9685 13.5569 L 10.7028 13.7103 L 10.437 13.8637 L 10.1713 14.0171 L 9.90552 14.1706 L 9.63977 14.324 L 9.37402 14.4774 L 9.10828 14.6309 L 8.84253 14.7843 L 8.57678 14.9377 L 8.33589 15.1235 L 8.11891 15.3405 L 7.90193 15.5575 L 7.68494 15.7745 L 7.46796 15.9915 L 7.25098 16.2084 L 7.034 16.4254 L 7.26941 16.6608 L 7.50482 16.8962 L 7.74024 17.1317 L 7.97565 17.3671 L 8.21106 17.6025 L 8.44647 17.8379 L 8.70946 17.9897 L 8.97245 18.1416 L 9.23544 18.2934 L 9.49844 18.4452 L 9.76143 18.5971 L 10.0244 18.7489 L 10.2874 18.9008 L 10.5504 19.0526 L 10.8134 19.2044 L 11.0764 19.3563 L 11.3394 19.5081 L 11.6024 19.66 L 11.8654 19.8118 L 12.1284 19.9636 L 12.3913 20.1155 L 12.6543 20.2673 L 12.9173 20.4191 L 13.1803 20.571 L 13.4433 20.7228 L 13.7063 20.8747 L 13.9693 21.0265 L 14.2323 21.1783 L 14.4953 21.3302 L 14.8255 21.4367 L 15.1017 21.5107 L 15.378 21.5847 L 15.6542 21.6587 L 15.9305 21.7328 L 16.2067 21.8068 L 16.483 21.8808 L 16.483 21.8808 L 16.483 21.8808 L 16.557 21.6046 L 16.631 21.3283 L 16.7051 21.052 L 16.7791 20.7758 L 16.8531 20.4995 L 16.9271 20.2233 L 17 19.8841 L 17 19.5804 L 17 19.2767 L 17 18.973 L 17 18.6694 L 17 18.3657 L 17 18.062 L 17 17.7583 L 17 17.4547 L 17 17.151 L 17 16.8473 L 17 16.5436 L 17 16.24 L 17 15.9363 L 17 15.6326 L 17 15.3289 L 17 15.0252 L 17 14.7216 L 17 14.4179 L 17 14.1142 L 17 13.8105 L 17 13.5069 L 17 13.2032 L 17 12.8995 L 16.9138 12.5779 L 16.8277 12.2564 L 16.7415 11.9348 L 16.6553 11.6132 L 16.5692 11.2916 L 16.483 10.97 Z" style="fill:rgb(1,0,0); fill-opacity:0; stroke:rgb(0,0,0); stroke-opacity:0.9; stroke-width:0.12" />
<path id="octant-5" d="M 16.483 10.97 L 16.1866 11.0495 L 15.8902 11.1289 L 15.5938 11.2083 L 15.2974 11.2877 L 15.001 11.3671 L 14.7046 11.4466 L 14.4232 11.5623 L 14.1575 11.7157 L 13.8917 11.8691 L 13.626 12.0226 L 13.3602 12.176 L 13.0945 12.3294 L 12.8287 12.4829 L 12.563 12.6363 L 12.2972 12.7897 L 12.0315 12.9431 L 11.7657 13.0966 L 11.5 13.25 L 11.2343 13.4034 L 10.9685 13.5569 L 10.7028 13.7103 L 10.437 13.8637 L 10.1713 14.0171 L 9.90552 14.1706 L 9.63977 14.324 L 9.37402 14.4774 L 9.10828 14.6309 L 8.84253 14.7843 L 8.57678 14.9377 L 8.33589 15.1235 L 8.11891 15.3405 L 7.90193 15.5575 L 7.68494 15.7745 L 7.46796 15.9915 L 7.25098 16.2084 L 7.034 16.4254 L 6.43083 15.2084 L 6.34467 14.8868 L 6.2585 14.5652 L 6.17233 14.2436 L 6.08617 13.9221 L 6 13.6005 L 6 13.2968 L 6 12.9931 L 6 12.6895 L 6 12.3858 L 6 12.0821 L 6 11.7784 L 6 11.4748 L 6 11.1711 L 6 10.8674 L 6 10.5637 L 6 10.26 L 6 9.95637 L 6 9.65269 L 6 9.34901 L 6 9.04534 L 6 8.74166 L 6 8.43799 L 6 8.13431 L 6 7.83063 L 6 7.52696 L 6 7.22328 L 6 6.9196 L 6 6.61593 L 6.07287 6.27672 L 6.14689 6.00046 L 6.22091 5.72421 L 6.29493 5.44796 L 6.36896 5.1717 L 6.44298 4.89545 L 6.517 4.61919 L 6.517 4.61919 L 6.517 4.61919 L 6.79325 4.69321 L 7.06951 4.76724 L 7.34576 4.84126 L 7.62202 4.91528 L 7.89827 4.9893 L 8.17453 5.06332 L 8.50472 5.16982 L 8.76772 5.32166 L 9.03071 5.4735 L 9.2937 5.62534 L 9.55669 5.77718 L 9.81968 5.92901 L 10.0827 6.08085 L 10.3457 6.23269 L 10.6087 6.38453 L 10.8716 6.53637 L 11.1346 6.68821 L 11.3976 6.84004 L 11.6606 6.99188 L 11.9236 7.14372 L 12.1866 7.29556 L 12.4496 7.4474 L 12.7126 7.59924 L 12.9756 7.75107 L 13.2386 7.90291 L 13.5016 8.05475 L 13.7646 8.20659 L 14.0275 8.35843 L 14.2905 8.51027 L 14.5535 8.6621 L 14.7889 8.89751 L 15.0244 9.13293 L 15.2598 9.36834 L 15.4952 9.60375 L 15.7306 9.83916 L 16.483 10.97 Z" style="fill:rgb(1,0,0); fill-opacity:0; stroke:rgb(0,0,0); stroke-opacity:0.9; stroke-width:0.12" />
</g>
<g id="half-octants">
<path id="half-octant-1-west" d="M 7.034 27.5746 L 7.25098 27.7916 L 7.46796 28.0085 L 7.68494 28.2255 L 7.90193 28.4425 L 8.11891 28.6595 L 8.33589 28.8765 L 8.57678 29.0623 L 8.84253 29.2157 L 9.10828 29.3691 L 9.37402 29.5226 L 9.63977 29.676 L 9.90552 29.8294 L 10.1713 29.9829 L 10.437 30.1363 L 10.7028 30.2897 L 10.9685 30.4431 L 11.2343 30.5966 L 11.5 30.75 L 11.6375 30.5118 L 11.775 30.2737 L 11.9125 30.0355 L 12.05 29.7974 L 12.1875 29.5592 L 12.325 29.3211 L 12.4625 29.0829 L 12.6 28.8447 L 12.7375 28.6066 L 12.875 28.3684 L 13.0125 28.1303 L 13.15 27.8921 L 13.2875 27.654 L 13.425 27.4158 L 13.5625 27.1776 L 13.7 26.9395 L 13.8375 26.7013 L 13.975 26.4632 L 14.1125 26.225 L 14.25 25.9869 L 14.3875 25.7487 L 14.525 25.5105 L 14.6625 25.2724 L 14.8 25.0342 L 14.9375 24.7961 L 15.075 24.5579 L 15.2125 24.3198 L 15.35 24.0816 L 15.4875 23.8434 L 15.625 23.6053 L 15.768 23.3576 L 15.911 23.1099 L 16.054 22.8622 L 16.197 22.6146 L 16.34 22.3669 L 16.483 22.1192 L 16.483 22.1192 L 16.483 22.1192 L 16.2067 22.1932 L 15.9305 22.2672 L 15.6542 22.3413 L 15.378 22.4153 L 15.1017 22.4893 L 14.8255 22.5633 L 14.4953 22.6698 L 14.2323 22.8217 L 13.9693 22.9735 L 13.7063 23.1253 L 13.4433 23.2772 L 13.1803 23.429 L 12.9173 23.5809 L 12.6543 23.7327 L 12.3913 23.8845 L 12.1284 24.0364 L 11.8654 24.1882 L 11.6024 24.34 L 11.3394 24.4919 L 11.0764 24.6437 L 10.8134 24.7956 L 10.5504 24.9474 L 10.2874 25.0992 L 10.0244 25.2511 L 9.76143 25.4029 L 9.49844 25.5548 L 9.23544 25.7066 L 8.97245 25.8584 L 8.70946 26.0103 L 8.44647 26.1621 L 8.21106 26.3975 L 7.97565 26.6329 L 7.74024 26.8683 L 7.50482 27.1038 L 7.26941 27.3392 L 7.034 27.5746 Z" style="fill:rgb(1,0,0); fill-opacity:0; stroke:rgb(255,0,0); stroke-opacity:0.7; stroke-width:0.055" />
<path id="half-octant-1-east" d="M 11.5 30.75 L 11.7657 30.9034 L 12.0315 31.0569 L 12.2972 31.2103 L 12.563 31.3637 L 12.8287 31.5171 L 13.0945 31.6706 L 13.3602 31.824 L 13.626 31.9774 L 13.8917 32.1309 L 14.1575 32.2843 L 14.4232 32.4377 L 14.7046 32.5534 L 15.001 32.6329 L 15.2974 32.7123 L 15.5938 32.7917 L 15.8902 32.8711 L 16.1866 32.9505 L 16.483 33.03 L 16.5692 32.7084 L 16.6553 32.3868 L 16.7415 32.0652 L 16.8277 31.7436 L 16.9138 31.4221 L 17 31.1005 L 17 30.7968 L 17 30.4931 L 17 30.1895 L 17 29.8858 L 17 29.5821 L 17 29.2784 L 17 28.9748 L 17 28.6711 L 17 28.3674 L 17 28.0637 L 17 27.76 L 17 27.4564 L 17 27.1527 L 17 26.849 L 17 26.5453 L 17 26.2417 L 17 25.938 L 17 25.6343 L 17 25.3306 L 17 25.027 L 17 24.7233 L 17 24.4196 L 17 24.1159 L 16.9271 23.7767 L 16.8531 23.5005 L 16.7791 23.2242 L 16.7051 22.948 L 16.631 22.6717 L 16.557 22.3954 L 16.483 22.1192 L 16.483 22.1192 L 16.483 22.1192 L 16.34 22.3669 L 16.197 22.6146 L 16.054 22.8622 L 15.911 23.1099 L 15.768 23.3576 L 15.625 23.6053 L 15.4875 23.8434 L 15.35 24.0816 L 15.2125 24.3198 L 15.075 24.5579 L 14.9375 24.7961 L 14.8 25.0342 L 14.6625 25.2724 L 14.525 25.5105 L 14.3875 25.7487 L 14.25 25.9869 L 14.1125 26.225 L 13.975 26.4632 L 13.8375 26.7013 L 13.7 26.9395 L 13.5625 27.1776 L 13.425 27.4158 L 13.2875 27.654 L 13.15 27.8921 L 13.0125 28.1303 L 12.875 28.3684 L 12.7375 28.6066 L 12.6 28.8447 L 12.4625 29.0829 L 12.325 29.3211 L 12.1875 29.5592 L 12.05 29.7974 L 11.9125 30.0355 L 11.775 30.2737 L 11.6375 30.5118 L 11.5 30.75 Z" style="fill:rgb(1,0,0); fill-opacity:0; stroke:rgb(255,0,0); stroke-opacity:0.7; stroke-width:0.055" />
<path id="half-octant-6-west" d="M 7.034 27.5746 L 7.25098 27.7916 L 7.46796 28.0085 L 7.68494 28.2255 L 7.90193 28.4425 L 8.11891 28.6595 L 8.33589 28.8765 L 8.57678 29.0623 L 8.84253 29.2157 L 9.10828 29.3691 L 9.37402 29.5226 L 9.63977 29.676 L 9.90552 29.8294 L 10.1713 29.9829 L 10.437 30.1363 L 10.7028 30.2897 L 10.9685 30.4431 L 11.2343 30.5966 L 11.5 30.75 L 11.3625 30.9882 L 11.225 31.2263 L 11.0875 31.4645 L 10.95 31.7026 L 10.8125 31.9408 L 10.675 32.1789 L 10.5375 32.4171 L 10.4 32.6553 L 10.2625 32.8934 L 10.125 33.1316 L 9.9875 33.3697 L 9.85 33.6079 L 9.7125 33.846 L 9.575 34.0842 L 9.4375 34.3224 L 9.3 34.5605 L 9.1625 34.7987 L 9.025 35.0368 L 8.8875 35.275 L 8.75 35.5131 L 8.6125 35.7513 L 8.475 35.9895 L 8.3375 36.2276 L 8.2 36.4658 L 8.0625 36.7039 L 7.925 36.9421 L 7.7875 37.1802 L 7.65 37.4184 L 7.5125 37.6566 L 7.375 37.8947 L 7.232 38.1424 L 7.089 38.3901 L 6.946 38.6378 L 6.803 38.8854 L 6.66 39.1331 L 6.517 39.3808 L 6.517 39.3808 L 6.517 39.3808 L 6.44298 39.1046 L 6.36896 38.8283 L 6.29493 38.552 L 6.22091 38.2758 L 6.14689 37.9995 L 6.07287 37.7233 L 6 37.3841 L 6 37.0804 L 6 36.7767 L 6 36.473 L 6 36.1694 L 6 35.8657 L 6 35.562 L 6 35.2583 L 6 34.9547 L 6 34.651 L 6 34.3473 L 6 34.0436 L 6 33.74 L 6 33.4363 L 6 33.1326 L 6 32.8289 L 6 32.5252 L 6 32.2216 L 6 31.9179 L 6 31.6142 L 6 31.3105 L 6 31.0069 L 6 30.7032 L 6 30.3995 L 6.08617 30.0779 L 6.17233 29.7564 L 6.2585 29.4348 L 6.34467 29.1132 L 6.43083 28.7916 L 7.034 27.5746 Z" style="fill:rgb(1,0,0); fill-opacity:0; stroke:rgb(255,0,0); stroke-opacity:0.7; stroke-width:0.055" />
<path id="half-octant-6-east" d="M 11.5 30.75 L 11.7657 30.9034 L 12.0315 31.0569 L 12.2972 31.2103 L 12.563 31.3637 L 12.8287 31.5171 L 13.0945 31.6706 L 13.3602 31.824 L 13.626 31.9774 L 13.8917 32.1309 L 14.1575 32.2843 L 14.4232 32.4377 L 14.7046 32.5534 L 15.001 32.6329 L 15.2974 32.7123 L 15.5938 32.7917 L 15.8902 32.8711 L 16.1866 32.9505 L 16.483 33.03 L 15.7306 34.1608 L 15.4952 34.3962 L 15.2598 34.6317 L 15.0244 34.8671 L 14.7889 35.1025 L 14.5535 35.3379 L 14.2905 35.4897 L 14.0275 35.6416 L 13.7646 35.7934 L 13.5016 35.9452 L 13.2386 36.0971 L 12.9756 36.2489 L 12.7126 36.4008 L 12.4496 36.5526 L 12.1866 36.7044 L 11.9236 36.8563 L 11.6606 37.0081 L 11.3976 37.16 L 11.1346 37.3118 L 10.8716 37.4636 L 10.6087 37.6155 L 10.3457 37.7673 L 10.0827 37.9191 L 9.81968 38.071 L 9.55669 38.2228 L 9.2937 38.3747 L 9.03071 38.5265 L 8.76772 38.6783 L 8.50472 38.8302 L 8.17453 38.9367 L 7.89827 39.0107 L 7.62202 39.0847 L 7.34576 39.1587 L 7.06951 39.2328 L 6.79325 39.3068 L 6.517 39.3808 L 6.517 39.3808 L 6.517 39.3808 L 6.66 39.1331 L 6.803 38.8854 L 6.946 38.6378 L 7.089 38.3901 L 7.232 38.1424 L 7.375 37.8947 L 7.5125 37.6566 L 7.65 37.4184 L 7.7875 37.1802 L 7.925 36.9421 L 8.0625 36.7039 L 8.2 36.4658 L 8.3375 36.2276 L 8.475 35.9895 L 8.6125 35.7513 L 8.75 35.5131 L 8.8875 35.275 L 9.025 35.0368 L 9.1625 34.7987 L 9.3 34.5605 L 9.4375 34.3224 L 9.575 34.0842 L 9.7125 33.846 L 9.85 33.6079 L 9.9875 33.3697 L 10.125 33.1316 L 10.2625 32.8934 L 10.4 32.6553 L 10.5375 32.4171 L 10.675 32.1789 L 10.8125 31.9408 L 10.95 31.7026 L 11.0875 31.4645 L 11.225 31.2263 L 11.3625 30.9882 L 11.5 30.75 Z" style="fill:rgb(1,0,0); fill-opacity:0; stroke:rgb(255,0,0); stroke-opacity:0.7; stroke-width:0.055" />
<path id="half-octant-2-west" d="M 17.517 33.03 L 17.8134 32.9505 L 18.1098 32.8711 L 18.4062 32.7917 L 18.7026 32.7123 L 18.999 32.6329 L 19.2954 32.5534 L 19.5768 32.4377 L 19.8425 32.2843 L 20.1083 32.1309 L 20.374 31.9774 L 20.6398 31.824 L 20.9055 31.6706 L 21.1713 31.5171 L 21.437 31.3637 L 21.7028 31.2103 L 21.9685 31.0569 L 22.2343 30.9034 L 22.5 30.75 L 22.3625 30.5118 L 22.225 30.2737 L 22.0875 30.0355 L 21.95 29.7974 L 21.8125 29.5592 L 21.675 29.3211 L 21.5375 29.0829 L 21.4 28.8447 L 21.2625 28.6066 L 21.125 28.3684 L 20.9875 28.1303 L 20.85 27.8921 L 20.7125 27.654 L 20.575 27.4158 L 20.4375 27.1776 L 20.3 26.9395 L 20.1625 26.7013 L 20.025 26.4632 L 19.8875 26.225 L 19.75 25.9869 L 19.6125 25.7487 L 19.475 25.5105 L 19.3375 25.2724 L 19.2 25.0342 L 19.0625 24.7961 L 18.925 24.5579 L 18.7875 24.3198 L 18.65 24.0816 L 18.5125 23.8434 L 18.375 23.6053 L 18.232 23.3576 L 18.089 23.1099 L 17.946 22.8622 L 17.803 22.6146 L 17.66 22.3669 L 17.517 22.1192 L 17.517 22.1192 L 17.517 22.1192 L 17.443 22.3954 L 17.369 22.6717 L 17.2949 22.948 L 17.2209 23.2242 L 17.1469 23.5005 L 17.0729 23.7767 L 17 24.1159 L 17 24.4196 L 17 24.7233 L 17 25.027 L 17 25.3306 L 17 25.6343 L 17 25.938 L 17 26.2417 L 17 26.5453 L 17 26.849 L 17 27.1527 L 17 27.4564 L 17 27.76 L 17 28.0637 L 17 28.3674 L 17 28.6711 L 17 28.9748 L 17 29.2784 L 17 29.5821 L 17 29.8858 L 17 30.1895 L 17 30.4931 L 17 30.7968 L 17 31.1005 L 17.0862 31.4221 L 17.1723 31.7436 L 17.2585 32.0652 L 17.3447 32.3868 L 17.4308 32.7084 L 17.517 33.03 Z" style="fill:rgb(1,0,0); fill-opacity:0; stroke:rgb(255,0,0); stroke-opacity:0.7; stroke-width:0.055" />
<path id="half-octant-2-east" d="M 22.5 30.75 L 22.7657 30.5966 L 23.0315 30.4431 L 23.2972 30.2897 L 23.563 30.1363 L 23.8287 29.9829 L 24.0945 29.8294 L 24.3602 29.676 L 24.626 29.5226 L 24.8917 29.3691 L 25.1575 29.2157 L 25.4232 29.0623 L 25.6641 28.8765 L 25.8811 28.6595 L 26.0981 28.4425 L 26.3151 28.2255 L 26.532 28.0085 L 26.749 27.7916 L 26.966 27.5746 L 26.7306 27.3392 L 26.4952 27.1038 L 26.2598 26.8683 L 26.0244 26.6329 L 25.7889 26.3975 L 25.5535 26.1621 L 25.2905 26.0103 L 25.0275 25.8584 L 24.7646 25.7066 L 24.5016 25.5548 L 24.2386 25.4029 L 23.9756 25.2511 L 23.7126 25.0992 L 23.4496 24.9474 L 23.1866 24.7956 L 22.9236 24.6437 L 22.6606 24.4919 L 22.3976 24.34 L 22.1346 24.1882 L 21.8716 24.0364 L 21.6087 23.8845 L 21.3457 23.7327 L 21.0827 23.5809 L 20.8197 23.429 L 20.5567 23.2772 L 20.2937 23.1253 L 20.0307 22.9735 L 19.7677 22.8217 L 19.5047 22.6698 L 19.1745 22.5633 L 18.8983 22.4893 L 18.622 22.4153 L 18.3458 22.3413 L 18.0695 22.2672 L 17.7933 22.1932 L 17.517 22.1192 L 17.517 22.1192 L 17.517 22.1192 L 17.66 22.3669 L 17.803 22.6146 L 17.946 22.8622 L 18.089 23.1099 L 18.232 23.3576 L 18.375 23.6053 L 18.5125 23.8434 L 18.65 24.0816 L 18.7875 24.3198 L 18.925 24.5579 L 19.0625 24.7961 L 19.2 25.0342 L 19.3375 25.2724 L 19.475 25.5105 L 19.6125 25.7487 L 19.75 25.9869 L 19.8875 26.225 L 20.025 26.4632 L 20.1625 26.7013 L 20.3 26.9395 L 20.4375 27.1776 L 20.575 27.4158 L 20.7125 27.654 L 20.85 27.8921 L 20.9875 28.1303 L 21.125 28.3684 L 21.2625 28.6066 L 21.4 28.8447 L 21.5375 29.0829 L 21.675 29.3211 L 21.8125 29.5592 L 21.95 29.7974 L 22.0875 30.0355 L 22.225 30.2737 L 22.3625 30.5118 L 22.5 30.75 Z" style="fill:rgb(1,0,0); fill-opacity:0; stroke:rgb(255,0,0); stroke-opacity:0.7; stroke-width:0.055" />
<path id="half-octant-7-west" d="M 17.517 33.03 L 17.8134 32.9505 L 18.1098 32.8711 L 18.4062 32.7917 L 18.7026 32.7123 L 18.999 32.6329 L 19.2954 32.5534 L 19.5768 32.4377 L 19.8425 32.2843 L 20.1083 32.1309 L 20.374 31.9774 L 20.6398 31.824 L 20.9055 31.6706 L 21.1713 31.5171 L 21.437 31.3637 L 21.7028 31.2103 L 21.9685 31.0569 L 22.2343 30.9034 L 22.5 30.75 L 22.6375 30.9882 L 22.775 31.2263 L 22.9125 31.4645 L 23.05 31.7026 L 23.1875 31.9408 L 23.325 32.1789 L 23.4625 32.4171 L 23.6 32.6553 L 23.7375 32.8934 L 23.875 33.1316 L 24.0125 33.3697 L 24.15 33.6079 L 24.2875 33.846 L 24.425 34.0842 L 24.5625 34.3224 L 24.7 34.5605 L 24.8375 34.7987 L 24.975 35.0368 L 25.1125 35.275 L 25.25 35.5131 L 25.3875 35.7513 L 25.525 35.9895 L 25.6625 36.2276 L 25.8 36.4658 L 25.9375 36.7039 L 26.075 36.9421 L 26.2125 37.1802 L 26.35 37.4184 L 26.4875 37.6566 L 26.625 37.8947 L 26.768 38.1424 L 26.911 38.3901 L 27.054 38.6378 L 27.197 38.8854 L 27.34 39.1331 L 27.483 39.3808 L 27.483 39.3808 L 27.483 39.3808 L 27.2067 39.3068 L 26.9305 39.2328 L 26.6542 39.1587 L 26.378 39.0847 L 26.1017 39.0107 L 25.8255 38.9367 L 25.4953 38.8302 L 25.2323 38.6783 L 24.9693 38.5265 L 24.7063 38.3747 L 24.4433 38.2228 L 24.1803 38.071 L 23.9173 37.9191 L 23.6543 37.7673 L 23.3913 37.6155 L 23.1284 37.4636 L 22.8654 37.3118 L 22.6024 37.16 L 22.3394 37.0081 L 22.0764 36.8563 L 21.8134 36.7044 L 21.5504 36.5526 L 21.2874 36.4008 L 21.0244 36.2489 L 20.7614 36.0971 L 20.4984 35.9452 L 20.2354 35.7934 L 19.9725 35.6416 L 19.7095 35.4897 L 19.4465 35.3379 L 19.2111 35.1025 L 18.9756 34.8671 L 18.7402 34.6317 L 18.5048 34.3962 L 18.2694 34.1608 L 17.517 33.03 Z" style="fill:rgb(1,0,0); fill-opacity:0; stroke:rgb(255,0,0); stroke-opacity:0.7; stroke-width:0.055" />
<path id="half-octant-7-east" d="M 22.5 30.75 L 22.7657 30.5966 L 23.0315 30.4431 L 23.2972 30.2897 L 23.563 30.1363 L 23.8287 29.9829 L 24.0945 29.8294 L 24.3602 29.676 L 24.626 29.5226 L 24.8917 29.3691 L 25.1575 29.2157 L 25.4232 29.0623 L 25.6641 28.8765 L 25.8811 28.6595 L 26.0981 28.4425 L 26.3151 28.2255 L 26.532 28.0085 L 26.749 27.7916 L 26.966 27.5746 L 27.5692 28.7916 L 27.6553 29.1132 L 27.7415 29.4348 L 27.8277 29.7564 L 27.9138 30.0779 L 28 30.3995 L 28 30.7032 L 28 31.0069 L 28 31.3105 L 28 31.6142 L 28 31.9179 L 28 32.2216 L 28 32.5252 L 28 32.8289 L 28 33.1326 L 28 33.4363 L 28 33.74 L 28 34.0436 L 28 34.3473 L 28 34.651 L 28 34.9547 L 28 35.2583 L 28 35.562 L 28 35.8657 L 28 36.1694 L 28 36.473 L 28 36.7767 L 28 37.0804 L 28 37.3841 L 27.9271 37.7233 L 27.8531 37.9995 L 27.7791 38.2758 L 27.7051 38.552 L 27.631 38.8283 L 27.557 39.1046 L 27.483 39.3808 L 27.483 39.3808 L 27.483 39.3808 L 27.34 39.1331 L 27.197 38.8854 L 27.054 38.6378 L 26.911 38.3901 L 26.768 38.1424 L 26.625 37.8947 L 26.4875 37.6566 L 26.35 37.4184 L 26.2125 37.1802 L 26.075 36.9421 L 25.9375 36.7039 L 25.8 36.4658 L 25.6625 36.2276 L 25.525 35.9895 L 25.3875 35.7513 L 25.25 35.5131 L 25.1125 35.275 L 24.975 35.0368 L 24.8375 34.7987 L 24.7 34.5605 L 24.5625 34.3224 L 24.425 34.0842 L 24.2875 33.846 L 24.15 33.6079 L 24.0125 33.3697 L 23.875 33.1316 L 23.7375 32.8934 L 23.6 32.6553 L 23.4625 32.4171 L 23.325 32.1789 L 23.1875 31.9408 L 23.05 31.7026 L 22.9125 31.4645 L 22.775 31.2263 L 22.6375 30.9882 L 22.5 30.75 Z" style="fill:rgb(1,0,0); fill-opacity:0; stroke:rgb(255,0,0); stroke-opacity:0.7; stroke-width:0.055" />
<path id="half-octant-3-west" d="M 26.966 16.4254 L 26.749 16.2084 L 26.532 15.9915 L 26.3151 15.7745 L 26.0981 15.5575 L 25.8811 15.3405 L 25.6641 15.1235 L 25.4232 14.9377 L 25.1575 14.7843 L 24.8917 14.6309 L 24.626 14.4774 L 24.3602 14.324 L 24.0945 14.1706 L 23.8287 14.0171 L 23.563 13.8637 L 23.2972 13.7103 L 23.0315 13.5569 L 22.7657 13.4034 L 22.5 13.25 L 22.3625 13.4882 L 22.225 13.7263 L 22.0875 13.9645 L 21.95 14.2026 L 21.8125 14.4408 L 21.675 14.6789 L 21.5375 14.9171 L 21.4 15.1553 L 21.2625 15.3934 L 21.125 15.6316 L 20.9875 15.8697 L 20.85 16.1079 L 20.7125 16.346 L 20.575 16.5842 L 20.4375 16.8224 L 20.3 17.0605 L 20.1625 17.2987 L 20.025 17.5368 L 19.8875 17.775 L 19.75 18.0131 L 19.6125 18.2513 L 19.475 18.4895 L 19.3375 18.7276 L 19.2 18.9658 L 19.0625 19.2039 L 18.925 19.4421 L 18.7875 19.6802 L 18.65 19.9184 L 18.5125 20.1566 L 18.375 20.3947 L 18.232 20.6424 L 18.089 20.8901 L 17.946 21.1378 L 17.803 21.3854 L 17.66 21.6331 L 17.517 21.8808 L 17.517 21.8808 L 17.517 21.8808 L 17.7933 21.8068 L 18.0695 21.7328 L 18.3458 21.6587 L 18.622 21.5847 L 18.8983 21.5107 L 19.1745 21.4367 L 19.5047 21.3302 L 19.7677 21.1783 L 20.0307 21.0265 L 20.2937 20.8747 L 20.5567 20.7228 L 20.8197 20.571 L 21.0827 20.4191 L 21.3457 20.2673 L 21.6087 20.1155 L 21.8716 19.9636 L 22.1346 19.8118 L 22.3976 19.66 L 22.6606 19.5081 L 22.9236 19.3563 L 23.1866 19.2044 L 23.4496 19.0526 L 23.7126 18.9008 L 23.9756 18.7489 L 24.2386 18.5971 L 24.5016 18.4452 L 24.7646 18.2934 L 25.0275 18.1416 L 25.2905 17.9897 L 25.5535 17.8379 L 25.7889 17.6025 L 26.0244 17.3671 L 26.2598 17.1317 L 26.4952 16.8962 L 26.7306 16.6608 L 26.966 16.4254 Z" style="fill:rgb(1,0,0); fill-opacity:0; stroke:rgb(255,0,0); stroke-opacity:0.7; stroke-width:0.055" />
<path id="half-octant-3-east" d="M 22.5 13.25 L 22.2343 13.0966 L 21.9685 12.9431 L 21.7028 12.7897 L 21.437 12.6363 L 21.1713 12.4829 L 20.9055 12.3294 L 20.6398 12.176 L 20.374 12.0226 L 20.1083 11.8691 L 19.8425 11.7157 L 19.5768 11.5623 L 19.2954 11.4466 L 18.999 11.3671 L 18.7026 11.2877 L 18.4062 11.2083 L 18.1098 11.1289 L 17.8134 11.0495 L 17.517 10.97 L 17.4308 11.2916 L 17.3447 11.6132 L 17.2585 11.9348 L 17.1723 12.2564 L 17.0862 12.5779 L 17 12.8995 L 17 13.2032 L 17 13.5069 L 17 13.8105 L 17 14.1142 L 17 14.4179 L 17 14.7216 L 17 15.0252 L 17 15.3289 L 17 15.6326 L 17 15.9363 L 17 16.24 L 17 16.5436 L 17 16.8473 L 17 17.151 L 17 17.4547 L 17 17.7583 L 17 18.062 L 17 18.3657 L 17 18.6694 L 17 18.973 L 17 19.2767 L 17 19.5804 L 17 19.8841 L 17.0729 20.2233 L 17.1469 20.4995 L 17.2209 20.7758 L 17.2949 21.052 L 17.369 21.3283 L 17.443 21.6046 L 17.517 21.8808 L 17.517 21.8808 L 17.517 21.8808 L 17.66 21.6331 L 17.803 21.3854 L 17.946 21.1378 L 18.089 20.8901 L 18.232 20.6424 L 18.375 20.3947 L 18.5125 20.1566 L 18.65 19.9184 L 18.7875 19.6802 L 18.925 19.4421 L 19.0625 19.2039 L 19.2 18.9658 L 19.3375 18.7276 L 19.475 18.4895 L 19.6125 18.2513 L 19.75 18.0131 L 19.8875 17.775 L 20.025 17.5368 L 20.1625 17.2987 L 20.3 17.0605 L 20.4375 16.8224 L 20.575 16.5842 L 20.7125 16.346 L 20.85 16.1079 L 20.9875 15.8697 L 21.125 15.6316 L 21.2625 15.3934 L 21.4 15.1553 L 21.5375 14.9171 L 21.675 14.6789 L 21.8125 14.4408 L 21.95 14.2026 L 22.0875 13.9645 L 22.225 13.7263 L 22.3625 13.4882 L 22.5 13.25 Z" style="fill:rgb(1,0,0); fill-opacity:0; stroke:rgb(255,0,0); stroke-opacity:0.7; stroke-width:0.055" />
<path id="half-octant-8-west" d="M 26.966 16.4254 L 26.749 16.2084 L 26.532 15.9915 L 26.3151 15.7745 L 26.0981 15.5575 L 25.8811 15.3405 L 25.6641 15.1235 L 25.4232 14.9377 L 25.1575 14.7843 L 24.8917 14.6309 L 24.626 14.4774 L 24.3602 14.324 L 24.0945 14.1706 L 23.8287 14.0171 L 23.563 13.8637 L 23.2972 13.7103 L 23.0315 13.5569 L 22.7657 13.4034 L 22.5 13.25 L 22.6375 13.0118 L 22.775 12.7737 L 22.9125 12.5355 L 23.05 12.2974 L 23.1875 12.0592 L 23.325 11.8211 L 23.4625 11.5829 L 23.6 11.3447 L 23.7375 11.1066 L 23.875 10.8684 L 24.0125 10.6303 L 24.15 10.3921 L 24.2875 10.154 L 24.425 9.9158 L 24.5625 9.67765 L 24.7 9.43949 L 24.8375 9.20133 L 24.975 8.96317 L 25.1125 8.72502 L 25.25 8.48686 L 25.3875 8.2487 L 25.525 8.01055 L 25.6625 7.77239 L 25.8 7.53423 L 25.9375 7.29608 L 26.075 7.05792 L 26.2125 6.81976 L 26.35 6.5816 L 26.4875 6.34345 L 26.625 6.10529 L 26.768 5.85761 L 26.911 5.60992 L 27.054 5.36224 L 27.197 5.11456 L 27.34 4.86687 L 27.483 4.61919 L 27.483 4.61919 L 27.483 4.61919 L 27.557 4.89545 L 27.631 5.1717 L 27.7051 5.44796 L 27.7791 5.72421 L 27.8531 6.00046 L 27.9271 6.27672 L 28 6.61593 L 28 6.9196 L 28 7.22328 L 28 7.52696 L 28 7.83063 L 28 8.13431 L 28 8.43799 L 28 8.74166 L 28 9.04534 L 28 9.34901 L 28 9.65269 L 28 9.95637 L 28 10.26 L 28 10.5637 L 28 10.8674 L 28 11.1711 L 28 11.4748 L 28 11.7784 L 28 12.0821 L 28 12.3858 L 28 12.6895 L 28 12.9931 L 28 13.2968 L 28 13.6005 L 27.9138 13.9221 L 27.8277 14.2436 L 27.7415 14.5652 L 27.6553 14.8868 L 27.5692 15.2084 L 26.966 16.4254 Z" style="fill:rgb(1,0,0); fill-opacity:0; stroke:rgb(255,0,0); stroke-opacity:0.7; stroke-width:0.055" />
<path id="half-octant-8-east" d="M 22.5 13.25 L 22.2343 13.0966 L 21.9685 12.9431 L 21.7028 12.7897 L 21.437 12.6363 L 21.1713 12.4829 L 20.9055 12.3294 L 20.6398 12.176 L 20.374 12.0226 L 20.1083 11.8691 L 19.8425 11.7157 L 19.5768 11.5623 L 19.2954 11.4466 L 18.999 11.3671 L 18.7026 11.2877 L 18.4062 11.2083 L 18.1098 11.1289 L 17.8134 11.0495 L 17.517 10.97 L 18.2694 9.83916 L 18.5048 9.60375 L 18.7402 9.36834 L 18.9756 9.13293 L 19.2111 8.89751 L 19.4465 8.6621 L 19.7095 8.51027 L 19.9725 8.35843 L 20.2354 8.20659 L 20.4984 8.05475 L 20.7614 7.90291 L 21.0244 7.75107 L 21.2874 7.59924 L 21.5504 7.4474 L 21.8134 7.29556 L 22.0764 7.14372 L 22.3394 6.99188 L 22.6024 6.84004 L 22.8654 6.68821 L 23.1284 6.53637 L 23.3913 6.38453 L 23.6543 6.23269 L 23.9173 6.08085 L 24.1803 5.92901 L 24.4433 5.77718 L 24.7063 5.62534 L 24.9693 5.4735 L 25.2323 5.32166 L 25.4953 5.16982 L 25.8255 5.06332 L 26.1017 4.9893 L 26.378 4.91528 L 26.6542 4.84126 L 26.9305 4.76724 L 27.2067 4.69321 L 27.483 4.61919 L 27.483 4.61919 L 27.483 4.61919 L 27.34 4.86687 L 27.197 5.11456 L 27.054 5.36224 L 26.911 5.60992 L 26.768 5.85761 L 26.625 6.10529 L 26.4875 6.34345 L 26.35 6.5816 L 26.2125 6.81976 L 26.075 7.05792 L 25.9375 7.29608 L 25.8 7.53423 L 25.6625 7.77239 L 25.525 8.01055 L 25.3875 8.2487 L 25.25 8.48686 L 25.1125 8.72502 L 24.975 8.96317 L 24.8375 9.20133 L 24.7 9.43949 L 24.5625 9.67765 L 24.425 9.9158 L 24.2875 10.154 L 24.15 10.3921 L 24.0125 10.6303 L 23.875 10.8684 L 23.7375 11.1066 L 23.6 11.3447 L 23.4625 11.5829 L 23.325 11.8211 L 23.1875 12.0592 L 23.05 12.2974 L 22.9125 12.5355 L 22.775 12.7737 L 22.6375 13.0118 L 22.5 13.25 Z" style="fill:rgb(1,0,0); fill-opacity:0; stroke:rgb(255,0,0); stroke-opacity:0.7; stroke-width:0.055" />
<path id="half-octant-4-west" d="M 16.483 10.97 L 16.1866 11.0495 L 15.8902 11.1289 L 15.5938 11.2083 L 15.2974 11.2877 L 15.001 11.3671 L 14.7046 11.4466 L 14.4232 11.5623 L 14.1575 11.7157 L 13.8917 11.8691 L 13.626 12.0226 L 13.3602 12.176 L 13.0945 12.3294 L 12.8287 12.4829 L 12.563 12.6363 L 12.2972 12.7897 L 12.0315 12.9431 L 11.7657 13.0966 L 11.5 13.25 L 11.6375 13.4882 L 11.775 13.7263 L 11.9125 13.9645 L 12.05 14.2026 L 12.1875 14.4408 L 12.325 14.6789 L 12.4625 14.9171 L 12.6 15.1553 L 12.7375 15.3934 L 12.875 15.6316 L 13.0125 15.8697 L 13.15 16.1079 L 13.2875 16.346 L 13.425 16.5842 L 13.5625 16.8224 L 13.7 17.0605 L 13.8375 17.2987 L 13.975 17.5368 L 14.1125 17.775 L 14.25 18.0131 L 14.3875 18.2513 L 14.525 18.4895 L 14.6625 18.7276 L 14.8 18.9658 L 14.9375 19.2039 L 15.075 19.4421 L 15.2125 19.6802 L 15.35 19.9184 L 15.4875 20.1566 L 15.625 20.3947 L 15.768 20.6424 L 15.911 20.8901 L 16.054 21.1378 L 16.197 21.3854 L 16.34 21.6331 L 16.483 21.8808 L 16.483 21.8808 L 16.483 21.8808 L 16.557 21.6046 L 16.631 21.3283 L 16.7051 21.052 L 16.7791 20.7758 L 16.8531 20.4995 L 16.9271 20.2233 L 17 19.8841 L 17 19.5804 L 17 19.2767 L 17 18.973 L 17 18.6694 L 17 18.3657 L 17 18.062 L 17 17.7583 L 17 17.4547 L 17 17.151 L 17 16.8473 L 17 16.5436 L 17 16.24 L 17 15.9363 L 17 15.6326 L 17 15.3289 L 17 15.0252 L 17 14.7216 L 17 14.4179 L 17 14.1142 L 17 13.8105 L 17 13.5069 L 17 13.2032 L 17 12.8995 L 16.9138 12.5779 L 16.8277 12.2564 L 16.7415 11.9348 L 16.6553 11.6132 L 16.5692 11.2916 L 16.483 10.97 Z" style="fill:rgb(1,0,0); fill-opacity:0; stroke:rgb(255,0,0); stroke-opacity:0.7; stroke-width:0.055" />
<path id="half-octant-4-east" d="M 11.5 13.25 L 11.2343 13.4034 L 10.9685 13.5569 L 10.7028 13.7103 L 10.437 13.8637 L 10.1713 14.0171 L 9.90552 14.1706 L 9.63977 14.324 L 9.37402 14.4774 L 9.10828 14.6309 L 8.84253 14.7843 L 8.57678 14.9377 L 8.33589 15.1235 L 8.11891 15.3405 L 7.90193 15.5575 L 7.68494 15.7745 L 7.46796 15.9915 L 7.25098 16.2084 L 7.034 16.4254 L 7.26941 16.6608 L 7.50482 16.8962 L 7.74024 17.1317 L 7.97565 17.3671 L 8.21106 17.6025 L 8.44647 17.8379 L 8.70946 17.9897 L 8.97245 18.1416 L 9.23544 18.2934 L 9.49844 18.4452 L 9.76143 18.5971 L 10.0244 18.7489 L 10.2874 18.9008 L 10.5504 19.0526 L 10.8134 19.2044 L 11.0764 19.3563 L 11.3394 19.5081 L 11.6024 19.66 L 11.8654 19.8118 L 12.1284 19.9636 L 12.3913 20.1155 L 12.6543 20.2673 L 12.9173 20.4191 L 13.1803 20.571 L 13.4433 20.7228 L 13.7063 20.8747 L 13.9693 21.0265 L 14.2323 21.1783 L 14.4953 21.3302 L 14.8255 21.4367 L 15.1017 21.5107 L 15.378 21.5847 L 15.6542 21.6587 L 15.9305 21.7328 L 16.2067 21.8068 L 16.483 21.8808 L 16.483 21.8808 L 16.483 21.8808 L 16.34 21.6331 L 16.197 21.3854 L 16.054 21.1378 L 15.911 20.8901 L 15.768 20.6424 L 15.625 20.3947 L 15.4875 20.1566 L 15.35 19.9184 L 15.2125 19.6802 L 15.075 19.4421 L 14.9375 19.2039 L 14.8 18.9658 L 14.6625 18.7276 L 14.525 18.4895 L 14.3875 18.2513 L 14.25 18.0131 L 14.1125 17.775 L 13.975 17.5368 L 13.8375 17.2987 L 13.7 17.0605 L 13.5625 16.8224 L 13.425 16.5842 L 13.2875 16.346 L 13.15 16.1079 L 13.0125 15.8697 L 12.875 15.6316 L 12.7375 15.3934 L 12.6 15.1553 L 12.4625 14.9171 L 12.325 14.6789 L 12.1875 14.4408 L 12.05 14.2026 L 11.9125 13.9645 L 11.775 13.7263 L 11.6375 13.4882 L 11.5 13.25 Z" style="fill:rgb(1,0,0); fill-opacity:0; stroke:rgb(255,0,0); stroke-opacity:0.7; stroke-width:0.055" />
<path id="half-octant-5-west" d="M 16.483 10.97 L 16.1866 11.0495 L 15.8902 11.1289 L 15.5938 11.2083 L 15.2974 11.2877 L 15.001 11.3671 L 14.7046 11.4466 L 14.4232 11.5623 L 14.1575 11.7157 L 13.8917 11.8691 L 13.626 12.0226 L 13.3602 12.176 L 13.0945 12.3294 L 12.8287 12.4829 L 12.563 12.6363 L 12.2972 12.7897 L 12.0315 12.9431 L 11.7657 13.0966 L 11.5 13.25 L 11.3625 13.0118 L 11.225 12.7737 L 11.0875 12.5355 L 10.95 12.2974 L 10.8125 12.0592 L 10.675 11.8211 L 10.5375 11.5829 L 10.4 11.3447 L 10.2625 11.1066 L 10.125 10.8684 L 9.9875 10.6303 L 9.85 10.3921 L 9.7125 10.154 L 9.575 9.9158 L 9.4375 9.67765 L 9.3 9.43949 L 9.1625 9.20133 L 9.025 8.96317 L 8.8875 8.72502 L 8.75 8.48686 L 8.6125 8.2487 L 8.475 8.01055 L 8.3375 7.77239 L 8.2 7.53423 L 8.0625 7.29608 L 7.925 7.05792 L 7.7875 6.81976 L 7.65 6.5816 L 7.5125 6.34345 L 7.375 6.10529 L 7.232 5.85761 L 7.089 5.60992 L 6.946 5.36224 L 6.803 5.11456 L 6.66 4.86687 L 6.517 4.61919 L 6.517 4.61919 L 6.517 4.61919 L 6.79325 4.69321 L 7.06951 4.76724 L 7.34576 4.84126 L 7.62202 4.91528 L 7.89827 4.9893 L 8.17453 5.06332 L 8.50472 5.16982 L 8.76772 5.32166 L 9.03071 5.4735 L 9.2937 5.62534 L 9.55669 5.77718 L 9.81968 5.92901 L 10.0827 6.08085 L 10.3457 6.23269 L 10.6087 6.38453 L 10.8716 6.53637 L 11.1346 6.68821 L 11.3976 6.84004 L 11.6606 6.99188 L 11.9236 7.14372 L 12.1866 7.29556 L 12.4496 7.4474 L 12.7126 7.59924 L 12.9756 7.75107 L 13.2386 7.90291 L 13.5016 8.05475 L 13.7646 8.20659 L 14.0275 8.35843 L 14.2905 8.51027 L 14.5535 8.6621 L 14.7889 8.89751 L 15.0244 9.13293 L 15.2598 9.36834 L 15.4952 9.60375 L 15.7306 9.83916 L 16.483 10.97 Z" style="fill:rgb(1,0,0); fill-opacity:0; stroke:rgb(255,0,0); stroke-opacity:0.7; stroke-width:0.055" />
<path id="half-octant-5-east" d="M 11.5 13.25 L 11.2343 13.4034 L 10.9685 13.5569 L 10.7028 13.7103 L 10.437 13.8637 L 10.1713 14.0171 L 9.90552 14.1706 L 9.63977 14.324 L 9.37402 14.4774 L 9.10828 14.6309 L 8.84253 14.7843 L 8.57678 14.9377 L 8.33589 15.1235 L 8.11891 15.3405 L 7.90193 15.5575 L 7.68494 15.7745 L 7.46796 15.9915 L 7.25098 16.2084 L 7.034 16.4254 L 6.43083 15.2084 L 6.34467 14.8868 L 6.2585 14.5652 L 6.17233 14.2436 L 6.08617 13.9221 L 6 13.6005 L 6 13.2968 L 6 12.9931 L 6 12.6895 L 6 12.3858 L 6 12.0821 L 6 11.7784 L 6 11.4748 L 6 11.1711 L 6 10.8674 L 6 10.5637 L 6 10.26 L 6 9.95637 L 6 9.65269 L 6 9.34901 L 6 9.04534 L 6 8.74166 L 6 8.43799 L 6 8.13431 L 6 7.83063 L 6 7.52696 L 6 7.22328 L 6 6.9196 L 6 6.61593 L 6.07287 6.27672 L 6.14689 6.00046 L 6.22091 5.72421 L 6.29493 5.44796 L 6.36896 5.1717 L 6.44298 4.89545 L 6.517 4.61919 L 6.517 4.61919 L 6.517 4.61919 L 6.66 4.86687 L 6.803 5.11456 L 6.946 5.36224 L 7.089 5.60992 L 7.232 5.85761 L 7.375 6.10529 L 7.5125 6.34345 L 7.65 6.5816 L 7.7875 6.81976 L 7.925 7.05792 L 8.0625 7.29608 L 8.2 7.53423 L 8.3375 7.77239 L 8.475 8.01055 L 8.6125 8.2487 L 8.75 8.48686 L 8.8875 8.72502 L 9.025 8.96317 L 9.1625 9.20133 L 9.3 9.43949 L 9.4375 9.67765 L 9.575 9.9158 L 9.7125 10.154 L 9.85 10.3921 L 9.9875 10.6303 L 10.125 10.8684 L 10.2625 11.1066 L 10.4 11.3447 L 10.5375 11.5829 L 10.675 11.8211 L 10.8125 12.0592 L 10.95 12.2974 L 11.0875 12.5355 L 11.225 12.7737 L 11.3625 13.0118 L 11.5 13.25 Z" style="fill:rgb(1,0,0); fill-opacity:0; stroke:rgb(255,0,0); stroke-opacity:0.7; stroke-width:0.055" />
</g>
</svg>

