<svg xml:space="preserve"
     xmlns="http://www.w3.org/2000/svg"
     xmlns:xlink="http://www.w3.org/1999/xlink"
     xmlns:html="http://www.w3.org/1999/xhtml"
id="astro-observer-authagraph-44-19.052559" x="0in" y="0in"
width="44.000000in" height="19.052559in"
viewBox="0 0 44.000000 19.052559" enable-background="new 0 0 44.000000 19.052559" role="img">
s
<title>
astro-observer-authagraph-44-19.052559
</title>
<desc>
AuthaGraph observer multi-band celestial atlas at 2026-08-05T01:59:44Z
</desc>
 <metadata id="astro-metadata" data-profile="astro-profile.json" data-product="observer" data-timestamp="2026-08-05T01:59:44Z" data-reference-point="San Francisco, California, USA" data-reference-latitude-deg="37.774900" data-reference-longitude-deg-east="-122.419400" data-reference-elevation-m="16.0" data-handedness="celestial" data-central-ra-hours="12.000" data-instrumentation="multi-band" data-bands="radio,microwave,infrared,optical,ultraviolet,x-ray,gamma-ray,neutrino,gravitational-wave" data-transient-lookback-days="7.000" data-sun-altitude-deg="13.179334"></metadata>
<g id="astronomy-background">
<rect x="0.000000" y="0.000000" width="44.000000" height="19.052559"
 style="fill:rgb(25,25,112); fill-opacity:1; stroke:rgb(1,0,0); stroke-opacity:0; stroke-width:0" id="night-sky-background" />
</g>
<g id="celestial-reference">
<path id="celestial-equator-segment-1" d="M 20.5711 13.6952 L 20.4451 13.6899 L 20.3191 13.6845 L 20.1931 13.679 L 20.0669 13.6735 L 19.9406 13.668 L 19.8141 13.6624 L 19.7915 13.6614 L 19.7915 13.6614 L 19.6831 13.6543 L 19.551 13.6455 L 19.4185 13.6367 L 19.2857 13.6277 L 19.1524 13.6186 L 19.0187 13.6094 L 18.8844 13.6 L 18.7495 13.5906 L 18.6139 13.581 L 18.4776 13.5714 L 18.3405 13.5616 L 18.2026 13.5517 L 18.1293 13.5464 L 18.1293 13.5464 L 18.0639 13.5454 L 17.9258 13.5433 L 17.7886 13.5411 L 17.6522 13.5388 L 17.5164 13.5365 L 17.3814 13.534 L 17.247 13.5315 L 17.1131 13.5289 L 16.9797 13.5261 L 16.8468 13.5232 L 16.7144 13.5202 L 16.7116 13.5202 L 16.7116 13.5202 L 16.5882 13.5137 L 16.4626 13.5071 L 16.3373 13.5005 L 16.2123 13.4938 L 16.0876 13.487 L 15.9631 13.4802 L 15.8387 13.4734 L 15.7146 13.4664 L 15.5905 13.4594 L 15.4666 13.4523 L 15.3427 13.4451 L 15.2188 13.4378 L 15.0949 13.4303 L 14.9711 13.4227 L 14.8472 13.415 L 14.7232 13.4071 L 14.5992 13.3991 L 14.4751 13.3908 L 14.3509 13.3823 L 14.2266 13.3736 L 14.1022 13.3647 L 13.9777 13.3555 L 13.853 13.3459 L 13.7282 13.3361 L 13.6033 13.3259 L 13.4783 13.3153 L 13.3533 13.3043 L 13.2281 13.2928 L 13.1029 13.2808 L 12.9776 13.2683 L 12.8523 13.2552 L 12.7271 13.2415 L 12.6018 13.227 L 12.4767 13.2118 L 12.3517 13.1958 L 12.2268 13.1789 L 12.1022 13.161 L 11.9778 13.1421 L 11.8537 13.1221 L 11.7299 13.101 L 11.6066 13.0785 L 11.4837 13.0547 L 11.3612 13.0294 L 11.2394 13.0026 L 11.1181 12.9742 L 10.9974 12.944 L 10.8774 12.9121 L 10.7581 12.8783 L 10.7034 12.862 L 10.7034 12.862 L 10.6396 12.8425 L 10.5218 12.8046 L 10.4048 12.7647 L 10.2886 12.7226 L 10.1732 12.6784 L 10.0586 12.6319 L 9.94481 12.5831 L 9.83184 12.532 L 9.71968 12.4787 L 9.60829 12.4231 L 9.49769 12.3653 L 9.38783 12.3053 L 9.27872 12.2431 L 9.17033 12.1788 L 9.06264 12.1125 L 8.95563 12.0442 L 8.84929 11.974 L 8.7436 11.9021 L 8.63854 11.8284 L 8.5341 11.7531 L 8.43026 11.6763 L 8.32702 11.598 L 8.22436 11.5184 L 8.12228 11.4376 L 8.02076 11.3556 L 7.9198 11.2725 L 7.81938 11.1885 L 7.71951 11.1036 L 7.62017 11.0178 L 7.52136 10.9313 L 7.42306 10.8441 L 7.32528 10.7563 L 7.22799 10.6679 L 7.1312 10.579 L 7.12926 10.5772 L 7.12926 10.5772 L 7.03503 10.48 L 6.93962 10.3805 L 6.84495 10.2807 L 6.75097 10.1807 L 6.65765 10.0805 L 6.56498 9.98008 L 6.4729 9.87958 L 6.3814 9.77898 L 6.29042 9.67831 L 6.19995 9.57756 L 6.10995 9.47677 L 6.02037 9.37592 L 5.93119 9.27504 L 5.84237 9.1741 L 5.75388 9.07312 L 5.66567 8.97207 L 5.57772 8.87097 L 5.48999 8.76978 L 5.40245 8.66849 L 5.31504 8.56709 L 5.22775 8.46556 L 5.14053 8.36387 L 5.05335 8.26201 L 4.96617 8.15994 L 4.87895 8.05764 L 4.79165 7.95508 L 4.70424 7.85222 L 4.64654 7.78425 L 4.64654 7.78425 L 4.61624 7.74936 L 4.52753 7.64718 L 4.43906 7.54527 L 4.35078 7.44356 L 4.26263 7.342 L 4.17456 7.24052 L 4.08652 7.13906 L 3.99846 7.03757 L 3.91032 6.93598 L 3.82206 6.83424 L 3.73362 6.73228 L 3.64496 6.63004 L 3.55601 6.52746 L 3.46673 6.42448 L 3.37706 6.32103 L 3.28695 6.21706 L 3.19634 6.11249 L 3.10518 6.00727 L 3.01341 5.90132 L 2.92097 5.79457 L 2.82781 5.68696 L 2.73386 5.57841 L 2.63907 5.46884 L 2.54336 5.35819 L 2.44668 5.24637 L 2.34895 5.13331 L 2.25011 5.0189 L 2.15009 4.90308 L 2.04882 4.78575 L 1.94623 4.66682 L 1.84224 4.54619 L 1.73677 4.42377 L 1.62974 4.29945 L 1.52109 4.17312 L 1.41073 4.04469 L 1.29857 3.91403 L 1.18456 3.78103 L 1.0686 3.64558 L 0.950637 3.50756 L 0.830595 3.36685 L 0.708423 3.22332 L 0.584077 3.07687 L 0.457533 2.92738 L 0.328792 2.77475 L 0.197889 2.61888 L 0.0649047 2.45971 L 2.44249e-15 2.38167 " style="fill:rgb(1,0,0); fill-opacity:0; stroke:rgb(128,128,128); stroke-opacity:0.45; stroke-width:0.018" />
<path id="celestial-equator-segment-2" d="M 44 2.38167 L 43.93 2.29719 L 43.7934 2.13131 L 43.7688 2.10127 L 43.7688 2.10127 L 43.661 1.96549 L 43.5288 1.79767 L 43.3964 1.62743 L 43.2645 1.45516 L 43.1342 1.28139 L 43.0072 1.10682 L 42.8856 0.932283 L 42.772 0.758703 L 42.67 0.586978 L 42.5836 0.417761 L 42.5172 0.251186 L 42.4748 0.0866285 L 42.4632 2.11526e-15 " style="fill:rgb(1,0,0); fill-opacity:0; stroke:rgb(128,128,128); stroke-opacity:0.45; stroke-width:0.018" />
<path id="celestial-equator-segment-3" d="M 37.7954 2.11526e-15 L 37.7992 0.0773051 L 37.787 0.242439 L 37.7485 0.410438 L 37.6868 0.582288 L 37.6062 0.758102 L 37.511 0.937267 L 37.4049 1.11875 L 37.2914 1.30139 L 37.1728 1.48407 L 37.0512 1.66587 L 36.928 1.84603 L 36.9254 1.84975 L 36.9254 1.84975 L 36.7961 2.02832 L 36.6644 2.20748 L 36.5336 2.38324 L 36.4042 2.55548 L 36.2765 2.7242 L 36.1507 2.88942 L 36.0268 3.05118 L 35.9051 3.20959 L 35.7855 3.36474 L 35.6679 3.51674 L 35.5524 3.66571 L 35.439 3.81179 L 35.3275 3.95508 L 35.2178 4.09572 L 35.1101 4.23384 L 35.004 4.36954 L 34.8997 4.50296 L 34.797 4.6342 L 34.6958 4.76338 L 34.596 4.89062 L 34.4976 5.016 L 34.4006 5.13965 L 34.3048 5.26165 L 34.2101 5.3821 L 34.1166 5.50109 L 34.0241 5.61872 L 33.9326 5.73507 L 33.842 5.85022 L 33.7522 5.96426 L 33.6633 6.07727 L 33.575 6.18931 L 33.4875 6.30048 L 33.4005 6.41083 L 33.3141 6.52045 L 33.2283 6.6294 L 33.1428 6.73775 L 33.0578 6.84557 L 32.9732 6.95292 L 32.8888 7.05988 L 32.8047 7.16649 L 32.7208 7.27284 L 32.6371 7.37898 L 32.5535 7.48497 L 32.4699 7.59088 L 32.3863 7.69676 L 32.3027 7.80269 L 32.219 7.90873 L 32.1352 8.01494 L 32.0965 8.06398 L 32.0965 8.06398 L 32.0516 8.12153 L 31.9685 8.22814 L 31.8854 8.33455 L 31.8024 8.44079 L 31.7193 8.54692 L 31.6362 8.65296 L 31.5531 8.75896 L 31.4698 8.86495 L 31.3863 8.97096 L 31.3027 9.07703 L 31.2188 9.18319 L 31.1346 9.28946 L 31.0501 9.39587 L 30.9652 9.50245 L 30.88 9.60922 L 30.7943 9.7162 L 30.7081 9.82341 L 30.6215 9.93085 L 30.5342 10.0385 L 30.4464 10.1465 L 30.3579 10.2547 L 30.2688 10.3632 L 30.1789 10.4719 L 30.0883 10.5808 L 29.9969 10.6899 L 29.9047 10.7993 L 29.8115 10.9087 L 29.7174 11.0183 L 29.6224 11.1279 L 29.5264 11.2375 L 29.4293 11.347 L 29.3311 11.4563 L 29.2318 11.5653 L 29.1313 11.6739 L 29.1293 11.6761 L 29.1293 11.6761 L 29.0298 11.7718 L 28.9275 11.8687 L 28.8244 11.9647 L 28.7204 12.0597 L 28.6156 12.1534 L 28.5099 12.2459 L 28.4035 12.3368 L 28.2961 12.426 L 28.188 12.5134 L 28.0789 12.5987 L 27.969 12.6817 L 27.8582 12.7623 L 27.7465 12.8403 L 27.6338 12.9155 L 27.5202 12.9878 L 27.4055 13.0569 L 27.2899 13.1228 L 27.1731 13.1852 L 27.0553 13.2443 L 26.9363 13.2998 L 26.8162 13.3517 L 26.6949 13.4 L 26.5724 13.4448 L 26.4488 13.4861 L 26.3239 13.524 L 26.1979 13.5585 L 26.0707 13.5898 L 25.9863 13.6088 L 25.9863 13.6088 L 25.9425 13.6181 L 25.8132 13.6435 L 25.683 13.6661 L 25.5519 13.6861 L 25.4199 13.7038 L 25.2873 13.7192 L 25.1541 13.7326 L 25.0203 13.744 L 24.8862 13.7538 L 24.7517 13.762 L 24.617 13.7688 L 24.4821 13.7743 L 24.3472 13.7786 L 24.2123 13.7819 L 24.0776 13.7842 L 23.9429 13.7857 L 23.8085 13.7864 L 23.6744 13.7864 L 23.5406 13.7859 L 23.4071 13.7847 L 23.274 13.7831 L 23.1413 13.7811 L 23.0091 13.7787 L 22.8773 13.7759 L 22.746 13.7729 L 22.6151 13.7695 L 22.4846 13.7659 L 22.3546 13.7621 L 22.2251 13.7581 L 22.096 13.754 L 21.9672 13.7496 L 21.8389 13.7452 L 21.711 13.7406 L 21.5834 13.7359 L 21.4561 13.7311 L 21.3291 13.7262 L 21.2023 13.7212 L 21.0758 13.7161 L 20.9494 13.711 L 20.8232 13.7058 L 20.6971 13.7005 " style="fill:rgb(1,0,0); fill-opacity:0; stroke:rgb(128,128,128); stroke-opacity:0.45; stroke-width:0.018" />
<path id="ecliptic-segment-1" d="M 20.5711 13.6952 L 20.4536 13.6388 L 20.3364 13.5825 L 20.2192 13.5262 L 20.1021 13.47 L 19.985 13.4137 L 19.8678 13.3574 L 19.7504 13.3011 L 19.6328 13.2446 L 19.5149 13.188 L 19.3967 13.1312 L 19.278 13.0742 L 19.1588 13.017 L 19.039 12.9595 L 18.9185 12.9016 L 18.7973 12.8435 L 18.6753 12.7849 L 18.5523 12.7258 L 18.4284 12.6664 L 18.3034 12.6063 L 18.2985 12.604 L 18.2985 12.604 L 18.1859 12.5416 L 18.1293 12.5102 L 18.1293 12.5102 L 18.0692 12.4831 L 17.9529 12.4307 L 17.8373 12.3786 L 17.7222 12.3269 L 17.6077 12.2755 L 17.4937 12.2243 L 17.3803 12.1735 L 17.2674 12.1229 L 17.155 12.0727 L 17.0431 12.0226 L 16.9317 11.9729 L 16.8208 11.9234 L 16.7104 11.8742 L 16.6477 11.8463 L 16.6477 11.8463 L 16.6002 11.8251 L 16.4904 11.7762 L 16.3811 11.7275 L 16.2723 11.679 L 16.164 11.6308 L 16.0561 11.5828 L 15.9486 11.5349 L 15.8416 11.4873 L 15.735 11.4399 L 15.6287 11.3927 L 15.5229 11.3456 L 15.4174 11.2987 L 15.3122 11.2519 L 15.2074 11.2053 L 15.103 11.1588 L 14.9988 11.1124 L 14.8949 11.0661 L 14.7914 11.02 L 14.6881 10.9739 L 14.585 10.9279 L 14.4823 10.882 L 14.3798 10.8361 L 14.2775 10.7903 L 14.1754 10.7446 L 14.0736 10.6989 L 13.9719 10.6532 L 13.8705 10.6075 L 13.7693 10.5618 L 13.6682 10.5161 L 13.5673 10.4704 L 13.4666 10.4247 L 13.366 10.379 L 13.2655 10.3332 L 13.1652 10.2873 L 13.065 10.2414 L 12.965 10.1954 L 12.865 10.1494 L 12.7651 10.1032 L 12.6654 10.057 L 12.5657 10.0106 L 12.4661 9.96411 L 12.3955 9.93119 L 12.3955 9.93119 L 12.3665 9.9175 L 12.267 9.87075 L 12.1676 9.82385 L 12.0682 9.7768 L 11.9688 9.72958 L 11.8695 9.68218 L 11.7701 9.63461 L 11.6708 9.58684 L 11.5715 9.53888 L 11.4721 9.49071 L 11.3728 9.44232 L 11.2734 9.39371 L 11.1739 9.34487 L 11.0745 9.2958 L 10.9749 9.24648 L 10.8753 9.19691 L 10.7756 9.14708 L 10.6759 9.09698 L 10.576 9.04662 L 10.476 8.99597 L 10.3759 8.94505 L 10.2757 8.89383 L 10.1754 8.84233 L 10.0749 8.79052 L 9.97425 8.7384 L 9.87344 8.68598 L 9.77246 8.63324 L 9.67129 8.58018 L 9.56993 8.5268 L 9.46837 8.47308 L 9.36659 8.41903 L 9.26458 8.36465 L 9.16234 8.30992 L 9.05986 8.25484 L 8.95711 8.19941 L 8.8541 8.14362 L 8.75082 8.08748 L 8.64724 8.03096 L 8.54337 7.97408 L 8.43918 7.91683 L 8.33467 7.8592 L 8.22983 7.80118 L 8.12465 7.74278 L 8.01911 7.68399 L 7.91321 7.62479 L 7.80692 7.5652 L 7.70025 7.5052 L 7.59317 7.44479 L 7.48567 7.38396 L 7.37775 7.3227 L 7.26938 7.26102 L 7.16056 7.1989 L 7.12926 7.1811 L 7.12926 7.1811 L 7.05135 7.1284 L 6.94192 7.05423 L 6.83226 6.97961 L 6.72238 6.90453 L 6.61223 6.82901 L 6.5018 6.75305 L 6.4702 6.73136 L 6.4702 6.73136 L 6.38686 6.67954 L 6.27093 6.60757 L 6.1558 6.5361 L 6.04138 6.46508 L 5.92762 6.39445 L 5.81442 6.32418 L 5.70172 6.25421 L 5.58944 6.18451 L 5.47752 6.11503 L 5.36588 6.04573 L 5.25446 5.97656 L 5.14319 5.90748 L 5.032 5.83846 L 4.92083 5.76944 L 4.80959 5.70039 L 4.69824 5.63126 L 4.58669 5.56201 L 4.47489 5.4926 L 4.36276 5.42299 L 4.25023 5.35312 L 4.13723 5.28297 L 4.02368 5.21248 L 3.90953 5.14161 L 3.79468 5.07031 L 3.67907 4.99854 L 3.56261 4.92623 L 3.44522 4.85336 L 3.32683 4.77985 L 3.20734 4.70567 L 3.08666 4.63075 L 2.96471 4.55504 L 2.84139 4.47847 L 2.7166 4.40099 L 2.59023 4.32253 L 2.46218 4.24303 L 2.33233 4.16241 L 2.20057 4.0806 L 2.06677 3.99753 L 1.9308 3.91311 L 1.79252 3.82725 L 1.6518 3.73987 L 1.50847 3.65088 L 1.36238 3.56016 L 1.21335 3.46763 L 1.0612 3.37315 L 0.905746 3.27662 L 0.746777 3.17791 L 0.584077 3.07687 L 0.417415 2.97337 L 0.246542 2.86726 L 0.0711963 2.75836 L 1.83187e-15 2.71413 " style="fill:rgb(1,0,0); fill-opacity:0; stroke:rgb(255,215,0); stroke-opacity:0.65; stroke-width:0.025" />
<path id="ecliptic-segment-2" d="M 44 2.71413 L 43.8911 2.64651 L 43.7059 2.53151 L 43.5154 2.41317 L 43.3192 2.29127 L 43.1168 2.16559 L 42.908 2.03588 L 42.6924 1.90191 L 42.4695 1.7634 L 42.2389 1.62012 L 42.0002 1.47181 L 41.7532 1.31832 L 41.4977 1.15963 L 41.2342 0.99611 L 40.9643 0.829227 L 40.6931 0.663939 L 40.4359 0.519502 L 40.4266 0.514996 L 40.2213 0.471243 L 40.1293 0.51802 L 40.0326 0.621864 L 39.8451 0.879576 L 39.6587 1.1563 L 39.4766 1.43164 L 39.3 1.70012 L 39.1294 1.96015 L 38.9647 2.21143 L 38.8058 2.45411 L 38.6524 2.68854 L 38.5041 2.91513 L 38.3607 3.13431 L 38.2218 3.34652 L 38.0873 3.55217 L 38.0125 3.66636 L 38.0125 3.66636 L 37.9568 3.75165 L 37.8301 3.94534 L 37.7069 4.13357 L 37.5872 4.31669 L 37.4705 4.49499 L 37.3569 4.66876 L 37.246 4.83827 L 37.1377 5.00377 L 37.0319 5.16549 L 36.9285 5.32365 L 36.8272 5.47847 L 36.728 5.63014 L 36.6307 5.77883 L 36.5353 5.92473 L 36.4416 6.06799 L 36.3495 6.20878 L 36.259 6.34723 L 36.1698 6.48349 L 36.082 6.6177 L 35.9955 6.74996 L 35.9102 6.88042 L 35.826 7.00917 L 35.7428 7.13633 L 35.6606 7.26201 L 35.5793 7.3863 L 35.4988 7.50931 L 35.4192 7.63112 L 35.3402 7.75183 L 35.2619 7.87152 L 35.1842 7.99028 L 35.1071 8.10819 L 35.0305 8.22533 L 34.9543 8.34178 L 34.8785 8.45762 L 34.8031 8.57291 L 34.728 8.68774 L 34.6532 8.80218 L 34.5785 8.91629 L 34.504 9.03014 L 34.4297 9.14382 L 34.3554 9.25738 L 34.3027 9.33776 L 34.3027 9.33776 L 34.2812 9.3709 L 34.2069 9.48444 L 34.1326 9.59806 L 34.0582 9.71183 L 33.9836 9.82581 L 33.9088 9.94009 L 33.8339 10.0547 L 33.7586 10.1698 L 33.683 10.2853 L 33.607 10.4015 L 33.5306 10.5182 L 33.4538 10.6357 L 33.3764 10.754 L 33.2984 10.8731 L 33.2199 10.9932 L 33.1406 11.1144 L 33.0606 11.2366 L 32.9798 11.3601 L 32.8982 11.4848 L 32.8156 11.611 L 32.7321 11.7386 L 32.6475 11.8678 L 32.5618 11.9987 L 32.4749 12.1314 L 32.3868 12.266 L 32.2973 12.4026 L 32.2064 12.5413 L 32.114 12.6823 L 32.02 12.8257 L 31.9243 12.9716 L 31.8269 13.1202 L 31.7276 13.2715 L 31.6263 13.4258 L 31.5229 13.5832 L 31.4173 13.7439 L 31.3094 13.9079 L 31.199 14.0754 L 31.0861 14.2467 L 30.9705 14.4217 L 30.8521 14.6007 L 30.7308 14.7837 L 30.6064 14.9707 L 30.4788 15.1617 L 30.3479 15.3566 L 30.2137 15.5551 L 30.076 15.7568 L 29.9349 15.9609 L 29.7903 16.166 L 29.6422 16.3702 L 29.4905 16.5705 L 29.3352 16.7625 L 29.1758 16.9397 L 29.1293 16.9864 L 29.0126 17.0816 L 28.8473 17.1867 L 28.6782 17.2533 L 28.5026 17.2794 L 28.3177 17.2682 L 28.1229 17.2266 L 28.0655 17.2101 L 28.0655 17.2101 L 27.9192 17.1627 L 27.7091 17.0836 L 27.4953 16.9951 L 27.28 16.9009 L 27.0652 16.8039 L 26.8522 16.7056 L 26.642 16.6074 L 26.4352 16.5099 L 26.2322 16.4137 L 26.0334 16.319 L 25.8386 16.2261 L 25.6481 16.1349 L 25.4617 16.0456 L 25.2795 15.9582 L 25.1011 15.8726 L 24.9266 15.7888 L 24.7558 15.7068 L 24.5886 15.6264 L 24.4247 15.5476 L 24.2641 15.4704 L 24.1065 15.3946 L 23.9519 15.3203 L 23.8001 15.2473 L 23.6509 15.1755 L 23.5043 15.105 L 23.36 15.0357 L 23.218 14.9674 L 23.0782 14.9001 L 22.9403 14.8338 L 22.8043 14.7685 L 22.6702 14.704 L 22.5377 14.6403 L 22.4068 14.5773 L 22.2773 14.5151 L 22.1493 14.4536 L 22.0225 14.3926 L 21.8969 14.3323 L 21.7725 14.2725 L 21.6491 14.2131 L 21.5266 14.1543 L 21.4049 14.0958 L 21.2841 14.0378 L 21.1639 13.98 L 21.0444 13.9226 L 20.9254 13.8654 L 20.807 13.8085 L 20.6889 13.7518 " style="fill:rgb(1,0,0); fill-opacity:0; stroke:rgb(255,215,0); stroke-opacity:0.65; stroke-width:0.025" />
<path id="galactic-equator-segment-1" d="M 33.9018 11.0864 L 33.7827 11.0926 L 33.7233 11.0954 L 33.7233 11.0954 L 33.6634 11.0983 L 33.544 11.1036 L 33.4244 11.1083 L 33.3047 11.1125 L 33.1848 11.116 L 33.0648 11.1189 L 32.9446 11.121 L 32.8243 11.1224 L 32.7038 11.1229 L 32.5832 11.1226 L 32.4625 11.1213 L 32.3417 11.1189 L 32.2207 11.1155 L 32.0996 11.111 L 31.9785 11.1053 L 31.8572 11.0984 L 31.7359 11.0901 L 31.6144 11.0805 L 31.4929 11.0695 L 31.3713 11.0571 L 31.2497 11.0431 L 31.128 11.0276 L 31.0062 11.0105 L 30.8844 10.9918 L 30.7626 10.9715 L 30.6407 10.9495 L 30.5188 10.9257 L 30.3969 10.9003 L 30.275 10.8732 L 30.1531 10.8444 L 30.0312 10.8139 L 29.9094 10.7817 L 29.7876 10.7477 L 29.6659 10.7122 L 29.5442 10.675 L 29.4227 10.6361 L 29.3012 10.5957 L 29.18 10.5538 L 29.1293 10.5358 L 29.1293 10.5358 L 29.0589 10.5032 L 28.9385 10.446 L 28.8187 10.3876 L 28.6996 10.3279 L 28.5812 10.2671 L 28.4634 10.2052 L 28.3462 10.1424 L 28.2297 10.0787 L 28.1137 10.0142 L 27.9984 9.94897 L 27.8837 9.88305 L 27.7695 9.81652 L 27.6559 9.74943 L 27.5427 9.68183 L 27.4301 9.61377 L 27.318 9.5453 L 27.2063 9.47645 L 27.095 9.40727 L 26.9842 9.33779 L 26.8737 9.26804 L 26.7635 9.19804 L 26.6537 9.12782 L 26.5442 9.0574 L 26.435 8.98679 L 26.3259 8.91601 L 26.2171 8.84508 L 26.1085 8.774 L 26 8.70278 L 25.8917 8.63142 L 25.7834 8.55993 L 25.6751 8.48832 L 25.5669 8.41657 L 25.5596 8.41178 L 25.5596 8.41178 L 25.4585 8.34493 L 25.3502 8.27336 L 25.242 8.2018 L 25.1338 8.13023 L 25.0255 8.05861 L 24.9171 7.98689 L 24.8085 7.91505 L 24.6997 7.84305 L 24.5907 7.77084 L 24.4813 7.69841 L 24.3715 7.62571 L 24.2613 7.5527 L 24.1506 7.47936 L 24.0393 7.40564 L 23.9274 7.33152 L 23.8148 7.25696 L 23.7015 7.18192 L 23.5875 7.10637 L 23.4725 7.03028 L 23.3567 6.95362 L 23.24 6.87635 L 23.1222 6.79846 L 23.0033 6.7199 L 22.8833 6.64066 L 22.7622 6.56071 L 22.6397 6.48003 L 22.516 6.39861 L 22.391 6.31643 L 22.2645 6.23348 L 22.1366 6.14977 L 22.0072 6.06531 L 21.8762 5.98011 L 21.7437 5.8942 L 21.6096 5.80762 L 21.4738 5.72044 L 21.4081 5.67906 L 21.3364 5.63274 L 21.1973 5.54462 L 21.0565 5.4562 L 20.914 5.36766 L 20.7699 5.2792 L 20.6242 5.19106 L 20.4769 5.10354 L 20.3281 5.01701 L 20.1779 4.93188 L 20.0263 4.84866 " style="fill:rgb(1,0,0); fill-opacity:0; stroke:rgb(147,112,219); stroke-opacity:0.55; stroke-width:0.025" />
<path id="galactic-equator-segment-2" d="M 19.8734 4.76793 L 19.7193 4.69035 L 19.5642 4.61666 L 19.4081 4.54771 L 19.251 4.48438 L 19.0931 4.42764 L 18.9344 4.37844 L 18.7749 4.33774 L 18.6146 4.30643 L 18.4535 4.28528 L 18.2916 4.27489 L 18.1293 4.27563 L 18.1293 4.27563 L 18.1291 4.27565 L 17.967 4.30418 L 17.8061 4.34339 L 17.6465 4.3925 L 17.4882 4.45059 L 17.3314 4.51666 L 17.1758 4.5897 L 17.0217 4.66869 L 16.869 4.75269 L 16.7177 4.8408 L 16.568 4.93223 L 16.4197 5.02626 L 16.2731 5.12227 L 16.1282 5.21972 L 15.9849 5.31816 L 15.8433 5.4172 L 15.7034 5.51653 L 15.5653 5.61587 L 15.4289 5.71502 L 15.2943 5.81379 L 15.1613 5.91204 L 15.0301 6.00968 L 14.9005 6.1066 L 14.7726 6.20276 L 14.6462 6.2981 L 14.5214 6.3926 L 14.398 6.48623 L 14.3735 6.50517 L 14.3735 6.50517 L 14.2762 6.579 L 14.1557 6.6709 L 14.0365 6.76194 L 13.9186 6.85214 L 13.802 6.94151 L 13.6865 7.03009 L 13.5722 7.11789 L 13.4589 7.20495 L 13.3466 7.29129 L 13.2353 7.37696 L 13.1248 7.46198 L 13.0152 7.5464 L 12.9063 7.63024 L 12.7982 7.71355 L 12.6907 7.79636 L 12.5838 7.87872 L 12.4775 7.96066 L 12.3717 8.04221 L 12.2663 8.12343 L 12.1613 8.20434 L 12.0566 8.285 L 11.9522 8.36543 L 11.848 8.44567 L 11.744 8.52578 L 11.6402 8.60578 L 11.5363 8.68573 L 11.4325 8.76565 L 11.3809 8.80553 L 11.3809 8.80553 L 11.3287 8.8456 L 11.2249 8.92552 L 11.121 9.0054 L 11.0171 9.08525 L 10.913 9.16509 L 10.8088 9.24494 L 10.7043 9.32479 L 10.5996 9.40466 L 10.4946 9.48455 L 10.3894 9.56447 L 10.2837 9.64442 L 10.1777 9.7244 L 10.0712 9.8044 L 9.96434 9.88442 L 9.85694 9.96444 L 9.74902 10.0444 L 9.64054 10.1244 L 9.53148 10.2043 L 9.42179 10.2842 L 9.31144 10.3639 L 9.20041 10.4434 L 9.08866 10.5228 L 8.97617 10.6018 L 8.86291 10.6806 L 8.74884 10.759 L 8.63394 10.8369 L 8.51818 10.9142 L 8.40154 10.9909 L 8.284 11.0669 L 8.16553 11.142 L 8.04611 11.2162 L 7.92572 11.2892 L 7.80436 11.361 L 7.68199 11.4314 L 7.55862 11.5003 L 7.43424 11.5674 L 7.30885 11.6327 L 7.18245 11.6959 L 7.12926 11.7216 L 7.12926 11.7216 L 7.05516 11.7493 L 6.92747 11.7948 L 6.79947 11.8379 L 6.67121 11.8783 L 6.54271 11.916 L 6.41401 11.951 L 6.28515 11.9831 L 6.15614 12.0125 L 6.02702 12.039 L 5.8978 12.0627 L 5.7685 12.0835 L 5.63915 12.1015 L 5.50977 12.1167 L 5.38035 12.1292 L 5.25093 12.1391 L 5.12152 12.1464 L 4.99213 12.1512 L 4.86277 12.1537 L 4.73348 12.1539 L 4.60427 12.1519 L 4.47515 12.148 L 4.34616 12.1421 L 4.2173 12.1344 L 4.08861 12.1251 L 3.9601 12.1142 L 3.83181 12.1019 L 3.70375 12.0883 L 3.57594 12.0735 L 3.44841 12.0576 L 3.32118 12.0407 L 3.19426 12.0229 L 3.06768 12.0043 L 3.05917 12.003 L 3.05917 12.003 L 2.94145 11.9849 L 2.81557 11.965 L 2.69007 11.9444 L 2.56495 11.9233 L 2.44021 11.9018 L 2.31586 11.8798 L 2.19191 11.8576 L 2.06834 11.835 L 1.94516 11.8122 L 1.82236 11.7891 L 1.69992 11.7659 L 1.57785 11.7425 L 1.45613 11.719 L 1.33474 11.6954 L 1.21366 11.6717 L 1.09288 11.6479 L 0.972377 11.6241 L 0.852129 11.6002 L 0.732112 11.5763 L 0.612301 11.5524 L 0.492668 11.5285 L 0.373186 11.5046 L 0.253825 11.4807 L 0.134554 11.4568 L 0.0153409 11.4329 L 0 11.4296 " style="fill:rgb(1,0,0); fill-opacity:0; stroke:rgb(147,112,219); stroke-opacity:0.55; stroke-width:0.025" />
<path id="galactic-equator-segment-3" d="M 44 11.4296 L 43.8962 11.409 L 43.777 11.3851 L 43.6577 11.3613 L 43.5384 11.3374 L 43.4189 11.3136 L 43.2993 11.2897 L 43.1795 11.2659 L 43.0595 11.2421 L 42.9391 11.2183 L 42.8185 11.1944 L 42.7606 11.1825 L 42.7606 11.1825 L 42.6978 11.1704 L 42.5773 11.1463 L 42.4567 11.1224 L 42.336 11.0988 L 42.2151 11.0754 L 42.094 11.0522 L 41.9727 11.0294 L 41.8513 11.0068 L 41.7297 10.9846 L 41.6078 10.9628 L 41.4858 10.9414 L 41.3636 10.9204 L 41.2411 10.8999 L 41.1184 10.8798 L 40.9955 10.8603 L 40.8724 10.8412 L 40.7491 10.8228 L 40.6255 10.8049 L 40.5018 10.7877 L 40.3778 10.771 L 40.2536 10.7551 L 40.1293 10.7398 L 40.1292 10.7398 L 40.0048 10.7379 L 39.8806 10.7367 L 39.7566 10.7362 L 39.6329 10.7363 L 39.5094 10.7371 L 39.3862 10.7385 L 39.2632 10.7405 L 39.1404 10.7431 L 39.0179 10.7462 L 38.8957 10.7499 L 38.7736 10.7541 L 38.6519 10.7587 L 38.5303 10.7639 L 38.4091 10.7695 L 38.288 10.7755 L 38.1672 10.782 L 38.0466 10.7888 L 37.9263 10.7959 L 37.8061 10.8034 L 37.6862 10.8112 L 37.5665 10.8192 L 37.4469 10.8275 L 37.3276 10.836 L 37.2084 10.8447 L 37.0895 10.8536 L 36.9707 10.8627 L 36.9468 10.8643 L 36.9468 10.8643 L 36.8518 10.8717 L 36.7332 10.8808 L 36.6148 10.8899 L 36.4966 10.899 L 36.3785 10.9081 L 36.2607 10.9173 L 36.1429 10.9265 L 36.0252 10.9357 L 35.9076 10.9449 L 35.7901 10.9541 L 35.6726 10.9632 L 35.5551 10.9724 L 35.4375 10.9814 L 35.32 10.9905 L 35.2024 10.9994 L 35.0847 11.0082 L 34.967 11.0169 L 34.8491 11.0255 L 34.7312 11.034 L 34.6131 11.0422 L 34.4949 11.0503 L 34.3766 11.0581 L 34.2581 11.0656 L 34.1395 11.0729 L 34.0207 11.0798 L 33.9018 11.0864 " style="fill:rgb(1,0,0); fill-opacity:0; stroke:rgb(147,112,219); stroke-opacity:0.55; stroke-width:0.025" />
<path id="observer-horizon-segment-1" d="M 16.4994 6.23876 L 16.6352 6.24418 L 16.7709 6.25327 L 16.9065 6.26616 L 17.0421 6.28294 L 17.1776 6.30365 L 17.313 6.32832 L 17.4482 6.35695 L 17.5832 6.38952 L 17.7179 6.42595 L 17.8524 6.46615 L 17.9866 6.51003 L 18.1204 6.55743 L 18.1293 6.56083 L 18.1293 6.56083 L 18.2534 6.62086 L 18.3851 6.68823 L 18.5156 6.75833 L 18.6449 6.83092 L 18.7729 6.90571 L 18.8996 6.98246 L 19.0251 7.06094 L 19.1494 7.14092 L 19.2724 7.22219 L 19.3943 7.30457 L 19.5151 7.38789 L 19.6347 7.47197 L 19.7532 7.55669 L 19.8706 7.64192 L 19.987 7.72754 L 20.1023 7.81344 " style="fill:rgb(1,0,0); fill-opacity:0; stroke:rgb(236,75,37); stroke-opacity:0.8; stroke-width:0.035" />
<path id="observer-horizon-segment-2" d="M 20.2167 7.89955 L 20.3301 7.98579 L 20.4426 8.07209 L 20.5542 8.15839 L 20.6649 8.24465 L 20.7748 8.33083 L 20.884 8.41689 L 20.9924 8.5028 L 21.1001 8.58856 L 21.2071 8.67413 L 21.3134 8.75953 L 21.4192 8.84472 L 21.5245 8.92973 L 21.6292 9.01454 L 21.7334 9.09917 L 21.8372 9.18362 L 21.9405 9.2679 L 22.0436 9.35203 L 22.1462 9.43602 L 22.2487 9.51989 L 22.3508 9.60366 L 22.4528 9.68734 L 22.5547 9.77097 L 22.6564 9.85456 L 22.758 9.93813 L 22.823 9.99177 L 22.823 9.99177 L 22.8596 10.0217 L 22.9612 10.1053 L 23.0629 10.1889 L 23.1647 10.2727 L 23.2665 10.3565 L 23.3686 10.4405 L 23.471 10.5247 L 23.5736 10.6092 L 23.6766 10.6939 L 23.78 10.779 L 23.8838 10.8644 L 23.9882 10.9502 L 24.0931 11.0365 L 24.1986 11.1233 L 24.3048 11.2106 L 24.4117 11.2984 L 24.5194 11.3868 L 24.6279 11.4759 L 24.7373 11.5656 L 24.8477 11.656 L 24.8689 11.6734 L 24.959 11.7471 L 25.0714 11.839 L 25.1849 11.9316 L 25.2995 12.0251 L 25.4154 12.1193 L 25.5325 12.2144 L 25.651 12.3103 L 25.7708 12.407 L 25.892 12.5045 L 26.0147 12.6029 L 26.1388 12.702 L 26.2646 12.8018 L 26.3919 12.9022 L 26.5208 13.0032 L 26.6514 13.1046 L 26.7837 13.2063 L 26.9176 13.3081 L 27.0532 13.4098 L 27.1906 13.5112 L 27.3296 13.6119 L 27.4704 13.7115 L 27.6128 13.8097 L 27.7569 13.9059 L 27.9026 13.9995 L 28.05 14.0898 L 28.1989 14.1762 L 28.3495 14.2579 L 28.5017 14.3339 L 28.6555 14.4033 L 28.8108 14.4653 L 28.9677 14.5189 L 29.1262 14.5634 L 29.1293 14.5641 L 29.1293 14.5641 L 29.2853 14.5821 L 29.4441 14.5904 L 29.6026 14.5887 L 29.7608 14.5773 L 29.9184 14.5567 L 30.0757 14.5274 L 30.2325 14.4902 L 30.3888 14.4458 L 30.5445 14.395 L 30.6997 14.3388 L 30.8542 14.2777 L 31.0079 14.2127 L 31.1607 14.1443 L 31.3126 14.0732 L 31.4633 13.9999 L 31.6128 13.9249 L 31.7611 13.8486 L 31.908 13.7714 L 32.0535 13.6936 L 32.1975 13.6155 L 32.3014 13.5583 L 32.34 13.5371 L 32.481 13.4588 L 32.6205 13.3807 L 32.7585 13.3029 L 32.8949 13.2254 L 33.0298 13.1484 L 33.1632 13.0719 L 33.2951 12.9959 L 33.4256 12.9206 L 33.5548 12.8458 L 33.6825 12.7717 L 33.809 12.6981 L 33.9342 12.6252 L 34.0582 12.5529 L 34.181 12.4812 L 34.3028 12.41 L 34.4234 12.3395 L 34.5431 12.2694 L 34.6619 12.1999 L 34.7797 12.1309 L 34.8967 12.0623 L 35.013 11.9942 L 35.1285 11.9266 L 35.2433 11.8593 L 35.3576 11.7923 L 35.4712 11.7257 L 35.5844 11.6594 L 35.6972 11.5934 L 35.8095 11.5276 L 35.9215 11.462 L 36.0332 11.3966 L 36.1448 11.3313 L 36.2561 11.2662 L 36.3673 11.2012 L 36.4785 11.1362 L 36.5897 11.0712 L 36.7009 11.0062 L 36.8123 10.9412 L 36.9238 10.876 L 36.9452 10.8634 L 36.9452 10.8634 L 37.0351 10.8107 L 37.1464 10.7455 L 37.2576 10.6804 L 37.3689 10.6155 L 37.4804 10.5509 L 37.5919 10.4864 L 37.7036 10.4222 L 37.8154 10.3582 L 37.9275 10.2945 L 38.0398 10.231 L 38.1523 10.1679 L 38.265 10.1051 L 38.3781 10.0427 L 38.4915 9.98064 L 38.6052 9.91903 L 38.7193 9.85789 L 38.8337 9.79724 L 38.9486 9.73714 L 39.0638 9.67763 L 39.1795 9.61875 L 39.2956 9.56056 L 39.4121 9.5031 L 39.5291 9.44643 L 39.6466 9.3906 L 39.7645 9.33568 L 39.883 9.28172 L 40.0019 9.22879 L 40.1213 9.17694 L 40.1293 9.17343 L 40.241 9.13763 L 40.3607 9.10034 L 40.4805 9.06427 L 40.6002 9.02944 L 40.7199 8.99586 L 40.8397 8.96354 L 40.9593 8.93249 L 41.079 8.90273 L 41.1986 8.87425 L 41.3181 8.84705 L 41.4376 8.82114 L 41.557 8.7965 L 41.6763 8.77313 L 41.7956 8.75101 L 41.9147 8.73013 L 42.0338 8.71047 L 42.1527 8.69201 L 42.2716 8.67472 L 42.3903 8.65859 L 42.509 8.64357 L 42.6275 8.62964 L 42.7459 8.61677 L 42.8643 8.60491 L 42.9825 8.59404 L 43.1006 8.58412 L 43.2185 8.5751 L 43.3364 8.56695 L 43.4542 8.55963 L 43.5718 8.55309 L 43.6893 8.54729 L 43.8067 8.5422 L 43.924 8.53778 L 44 8.53505 " style="fill:rgb(1,0,0); fill-opacity:0; stroke:rgb(236,75,37); stroke-opacity:0.8; stroke-width:0.035" />
<path id="observer-horizon-segment-3" d="M 6.10623e-16 8.53505 L 0.0412208 8.53398 L 0.158287 8.53076 L 0.27524 8.52809 L 0.392082 8.52593 L 0.508814 8.52424 L 0.625439 8.52299 L 0.741959 8.52214 L 0.85838 8.52166 L 0.974704 8.52152 L 1.04911 8.52144 L 1.04911 8.52144 L 1.09094 8.52168 L 1.20708 8.52212 L 1.32315 8.52281 L 1.43915 8.52372 L 1.55508 8.52483 L 1.67096 8.52612 L 1.78679 8.52755 L 1.90258 8.52911 L 2.01836 8.53079 L 2.13412 8.53255 L 2.24988 8.53438 L 2.36566 8.53627 L 2.48148 8.5382 L 2.59734 8.54015 L 2.71326 8.54211 L 2.82927 8.54407 L 2.94538 8.54601 L 3.06161 8.54793 L 3.17798 8.5498 L 3.29452 8.55163 L 3.31688 8.55193 L 3.31688 8.55193 L 3.41115 8.55342 L 3.52791 8.55511 L 3.64481 8.55667 L 3.76187 8.55807 L 3.8791 8.55929 L 3.9965 8.5603 L 4.11409 8.56109 L 4.23186 8.56163 L 4.34983 8.56189 L 4.468 8.56186 L 4.58638 8.5615 L 4.70498 8.56079 L 4.82379 8.55971 L 4.94284 8.55824 L 5.06211 8.55634 L 5.18162 8.55401 L 5.30137 8.5512 L 5.42136 8.54791 L 5.5416 8.54411 L 5.66208 8.53977 L 5.78281 8.53487 L 5.90379 8.52941 L 6.02501 8.52334 L 6.14649 8.51666 L 6.26821 8.50935 L 6.39018 8.50139 L 6.51239 8.49276 L 6.63483 8.48346 L 6.75751 8.47346 L 6.88041 8.46275 L 7.00354 8.45132 L 7.12687 8.43917 L 7.12926 8.43893 L 7.12926 8.43893 L 7.25022 8.41394 L 7.37336 8.38776 L 7.49629 8.3609 L 7.61901 8.33338 L 7.74152 8.30524 L 7.86381 8.27649 L 7.98589 8.24718 L 8.10777 8.21733 L 8.22943 8.18697 L 8.3509 8.15612 L 8.47217 8.12482 L 8.59326 8.0931 L 8.71416 8.06098 L 8.8349 8.0285 L 8.95547 7.99567 L 9.07589 7.96253 L 9.19617 7.9291 L 9.31632 7.8954 L 9.43636 7.86147 L 9.55629 7.82733 L 9.64355 7.80248 L 9.64355 7.80248 L 9.67636 7.79315 L 9.79676 7.75933 L 9.9168 7.72556 L 10.0365 7.69183 L 10.156 7.65812 L 10.2753 7.62444 L 10.3944 7.59075 L 10.5135 7.55707 L 10.6324 7.52337 L 10.7514 7.48965 L 10.8703 7.45589 L 10.9893 7.42211 L 11.1085 7.38828 L 11.2278 7.3544 L 11.3473 7.32047 L 11.467 7.28648 L 11.5869 7.25243 L 11.7072 7.21833 L 11.8278 7.18417 L 11.9488 7.14995 L 12.0701 7.11568 L 12.1919 7.08136 L 12.3142 7.04701 L 12.4369 7.01263 L 12.5602 6.97824 L 12.6839 6.94385 L 12.8083 6.90949 L 12.9332 6.87517 L 13.0587 6.84094 L 13.1848 6.80681 L 13.3115 6.77283 L 13.4388 6.73905 L 13.5667 6.7055 L 13.6952 6.67226 L 13.8244 6.63937 L 13.9541 6.60693 L 14.0845 6.575 L 14.2154 6.54367 L 14.3469 6.51305 L 14.3721 6.50752 L 14.3721 6.50752 L 14.4789 6.48325 L 14.6114 6.45438 L 14.7444 6.42658 L 14.8778 6.39999 L 15.0117 6.37476 L 15.1459 6.35105 L 15.2804 6.32904 L 15.4152 6.30891 L 15.5503 6.29085 L 15.6855 6.27505 L 15.821 6.26172 L 15.9565 6.25104 L 16.0922 6.24322 L 16.2279 6.23845 L 16.3636 6.23691 L 16.4994 6.23876 " style="fill:rgb(1,0,0); fill-opacity:0; stroke:rgb(236,75,37); stroke-opacity:0.8; stroke-width:0.035" />
</g>
<g id="stars">
</g>
<g id="exoplanet-hosts">
</g>
<g id="deep-sky">
<circle cx="20.610091" cy="5.557348" r="0.065000" style="fill:rgb(147,112,219); fill-opacity:0.88; stroke:rgb(224,255,255); stroke-opacity:0.7; stroke-width:0.012" id="cas-a" data-name="Cassiopeia A" data-kind="supernova-remnant" data-bands="radio,infrared,optical,x-ray,gamma-ray" data-ra-deg="350.850000" data-dec-deg="58.815000" data-observer-altitude-deg="15.227043" data-source="https://heasarc.gsfc.nasa.gov/" />
<circle cx="33.907510" cy="11.092299" r="0.065000" style="fill:rgb(0,0,0); fill-opacity:1; stroke:rgb(255,0,255); stroke-opacity:1; stroke-width:0.035" id="sgr-a-star" data-name="Sagittarius A*" data-kind="black-hole" data-bands="radio,infrared,x-ray,gamma-ray" data-ra-deg="266.416837" data-dec-deg="-29.007811" data-observer-altitude-deg="10.925141" data-source="https://heasarc.gsfc.nasa.gov/" />
<circle cx="1.907457" cy="1.335653" r="0.065000" style="fill:rgb(0,0,0); fill-opacity:1; stroke:rgb(255,0,255); stroke-opacity:1; stroke-width:0.035" id="m87-star" data-name="M87*" data-kind="black-hole" data-bands="radio,infrared,optical,ultraviolet,x-ray,gamma-ray" data-ra-deg="187.705931" data-dec-deg="12.391123" data-observer-altitude-deg="50.857786" data-source="https://heasarc.gsfc.nasa.gov/" />
<circle cx="25.678330" cy="8.058828" r="0.065000" style="fill:rgb(147,112,219); fill-opacity:0.88; stroke:rgb(224,255,255); stroke-opacity:0.7; stroke-width:0.012" id="cygnus-x-1" data-name="Cygnus X-1" data-kind="x-ray-binary" data-bands="radio,infrared,optical,ultraviolet,x-ray,gamma-ray" data-ra-deg="299.590315" data-dec-deg="35.201606" data-observer-altitude-deg="28.856207" data-source="https://heasarc.gsfc.nasa.gov/" />
<circle cx="40.106211" cy="8.112640" r="0.065000" style="fill:rgb(147,112,219); fill-opacity:0.88; stroke:rgb(224,255,255); stroke-opacity:0.7; stroke-width:0.012" id="centaurus-a" data-name="Centaurus A" data-kind="active-galaxy" data-bands="radio,infrared,optical,ultraviolet,x-ray,gamma-ray" data-ra-deg="201.365063" data-dec-deg="-43.019113" data-observer-altitude-deg="7.229750" data-source="https://heasarc.gsfc.nasa.gov/" data-magnitude="6.840" />
<circle cx="0.000337" cy="1.797297" r="0.065000" style="fill:rgb(147,112,219); fill-opacity:0.88; stroke:rgb(224,255,255); stroke-opacity:0.7; stroke-width:0.012" id="3c-273" data-name="3C 273" data-kind="quasar" data-bands="radio,infrared,optical,ultraviolet,x-ray,gamma-ray" data-ra-deg="187.277915" data-dec-deg="2.052388" data-observer-altitude-deg="42.667455" data-source="https://heasarc.gsfc.nasa.gov/" data-magnitude="12.850" />
</g>
<g id="solar-system">
<circle cx="6.465100" cy="6.728493" r="0.140000" style="fill:rgb(255,215,0); fill-opacity:1; stroke:rgb(255,250,205); stroke-opacity:1; stroke-width:0.025" id="sun" data-name="Sun" data-kind="sun" data-bands="radio,infrared,optical,ultraviolet,x-ray,gamma-ray" data-ra-deg="134.790572" data-dec-deg="17.099770" data-observer-altitude-deg="13.179334" data-source="https://ssd.jpl.nasa.gov/planets/approx_pos.html" data-detail="JPL approximate geocentric solar position" data-magnitude="-26.740" />
<circle cx="8.447752" cy="8.090900" r="0.075000" style="fill:rgb(236,75,37); fill-opacity:0.95; stroke:rgb(255,255,255); stroke-opacity:0.75; stroke-width:0.012" id="mercury" data-name="Mercury" data-kind="planet" data-bands="infrared,optical,radio" data-ra-deg="114.879617" data-dec-deg="20.352388" data-observer-altitude-deg="0.305641" data-source="https://ssd.jpl.nasa.gov/planets/approx_pos.html" data-detail="JPL approximate Keplerian planet position; nominal display magnitude" data-magnitude="-0.400" />
<circle cx="0.899664" cy="3.338529" r="0.075000" style="fill:rgb(236,75,37); fill-opacity:0.95; stroke:rgb(255,255,255); stroke-opacity:0.75; stroke-width:0.012" id="venus" data-name="Venus" data-kind="planet" data-bands="infrared,optical,radio" data-ra-deg="177.908048" data-dec-deg="0.489906" data-observer-altitude-deg="35.517525" data-source="https://ssd.jpl.nasa.gov/planets/approx_pos.html" data-detail="JPL approximate Keplerian planet position; nominal display magnitude" data-magnitude="-4.100" />
<circle cx="7.025819" cy="7.035951" r="0.075000" style="fill:rgb(236,75,37); fill-opacity:0.95; stroke:rgb(255,255,255); stroke-opacity:0.75; stroke-width:0.012" id="jupiter" data-name="Jupiter" data-kind="planet" data-bands="infrared,optical,radio" data-ra-deg="130.050621" data-dec-deg="18.856848" data-observer-altitude-deg="10.576322" data-source="https://ssd.jpl.nasa.gov/planets/approx_pos.html" data-detail="JPL approximate Keplerian planet position; nominal display magnitude" data-magnitude="-2.200" />
<circle cx="40.383217" cy="3.520150" r="0.052000" style="fill:rgb(250,250,210); fill-opacity:0.9; stroke:rgb(1,0,0); stroke-opacity:0; stroke-width:0" id="sbdb-eros" data-name="433 Eros (A898 PA)" data-kind="asteroid" data-bands="infrared,optical,radio" data-ra-deg="197.866861" data-dec-deg="-17.955297" data-observer-altitude-deg="30.120585" data-source="https://ssd-api.jpl.nasa.gov/doc/sbdb.html" data-detail="Two-body propagation of JPL SBDB osculating elements at JD 2461200.500000" data-magnitude="12.304" />
<circle cx="2.939585" cy="4.596260" r="0.052000" style="fill:rgb(250,250,210); fill-opacity:0.9; stroke:rgb(1,0,0); stroke-opacity:0; stroke-width:0" id="sbdb-apophis" data-name="99942 Apophis (2004 MN4)" data-kind="asteroid" data-bands="infrared,optical,radio" data-ra-deg="164.211548" data-dec-deg="6.323651" data-observer-altitude-deg="29.734283" data-source="https://ssd-api.jpl.nasa.gov/doc/sbdb.html" data-detail="Two-body propagation of JPL SBDB osculating elements at JD 2461200.500000" data-magnitude="20.403" />
<circle cx="34.648597" cy="9.749810" r="0.052000" style="fill:rgb(224,255,255); fill-opacity:0.9; stroke:rgb(0,255,255); stroke-opacity:0.9; stroke-width:0.02" id="sbdb-67p" data-name="67P/Churyumov-Gerasimenko" data-kind="comet" data-bands="infrared,optical,radio,ultraviolet" data-ra-deg="253.963110" data-dec-deg="-27.342415" data-observer-altitude-deg="17.985584" data-source="https://ssd-api.jpl.nasa.gov/doc/sbdb.html" data-detail="Two-body propagation of JPL SBDB osculating elements at JD 2457305.500000" />
</g>
<g id="transients">
<path id="grb-260803a-uncertainty-segment-1" d="M 18.5075 0.879785 L 18.3808 0.769806 L 18.258 0.701413 L 18.139 0.695039 L 18.1293 0.698691 L 18.0226 0.766624 L 17.9094 0.887316 L 17.7999 1.03539 L 17.6962 1.19782 L 17.6002 1.36743 L 17.5129 1.54014 L 17.4351 1.71348 L 17.3672 1.88584 L 17.3092 2.05605 L 17.2612 2.22322 L 17.223 2.38667 L 17.1945 2.5458 L 17.1754 2.70012 L 17.1655 2.84921 L 17.1646 2.99269 L 17.1723 3.13024 L 17.1882 3.26155 L 17.2122 3.38638 L 17.2437 3.5045 L 17.2824 3.61571 L 17.328 3.71984 L 17.3801 3.81674 L 17.4382 3.9063 L 17.502 3.98841 L 17.571 4.06301 L 17.6448 4.13002 L 17.7229 4.18942 L 17.8049 4.24118 L 17.8902 4.2853 L 17.9785 4.32179 L 18.0691 4.35068 L 18.1293 4.36443 L 18.1293 4.36443 L 18.1617 4.37532 L 18.2551 4.39865 L 18.3489 4.41447 L 18.4424 4.42271 L 18.5352 4.4233 L 18.6267 4.4162 L 18.7165 4.40136 L 18.804 4.37876 L 18.8889 4.34841 L 18.9705 4.31029 L 19.0486 4.26445 L 19.1226 4.21093 L 19.1921 4.14979 L 19.2567 4.08113 L 19.3159 4.00504 L 19.3695 3.92167 L 19.4169 3.83115 L 19.4579 3.73367 L 19.492 3.62943 L 19.519 3.51866 L 19.5384 3.40158 L 19.5499 3.27849 L 19.5534 3.14969 L 19.5483 3.01548 L 19.5346 2.87624 L 19.5118 2.73235 L 19.4798 2.58423 L 19.4383 2.43233 L 19.3872 2.27716 L 19.3262 2.11928 L 19.2554 1.95932 L 19.219 1.88751 L 19.219 1.88751 L 19.1747 1.798 L 19.0842 1.63621 L 18.9842 1.47502 L 18.9651 1.44764 L 18.8751 1.31592 L 18.7581 1.16102 L 18.6346 1.0137 " style="fill:rgb(1,0,0); fill-opacity:0; stroke:rgb(220,48,35); stroke-opacity:0.6; stroke-width:0.022" />
<circle cx="18.361398" cy="2.785370" r="0.085000" style="fill:rgb(1,0,0); fill-opacity:0; stroke:rgb(220,48,35); stroke-opacity:1; stroke-width:0.045" id="grb-260803a" data-name="GRB 260803A" data-kind="gamma-ray-burst" data-bands="gamma-ray" data-ra-deg="22.100000" data-dec-deg="68.700000" data-observer-altitude-deg="17.417399" data-source="https://gcn.nasa.gov/circulars/45279" data-uncertainty-deg="6.700000" data-observed-at="2026-08-03T17:28:46Z" data-age-days="1.355" />
<path id="grb-260802a-uncertainty-segment-1" d="M 21.6304 6.52192 L 21.6286 6.52202 L 21.6269 6.52231 L 21.6252 6.5228 L 21.6236 6.52346 L 21.6222 6.52431 L 21.6208 6.52533 L 21.6195 6.52652 L 21.6184 6.52786 L 21.6174 6.52935 L 21.6165 6.53098 L 21.6158 6.53272 L 21.6153 6.53458 L 21.6149 6.53653 L 21.6146 6.53856 L 21.6146 6.54066 L 21.6147 6.5428 L 21.6149 6.54498 L 21.6153 6.54717 L 21.6159 6.54936 L 21.6166 6.55153 L 21.6175 6.55367 L 21.6185 6.55576 L 21.6197 6.55778 L 21.6209 6.55971 L 21.6223 6.56155 L 21.6238 6.56328 L 21.6254 6.56489 L 21.6271 6.56636 L 21.6288 6.56768 L 21.6306 6.56885 L 21.6324 6.56985 L 21.6343 6.57067 L 21.6361 6.57132 L 21.638 6.57178 L 21.6398 6.57206 L 21.6417 6.57214 L 21.6434 6.57204 L 21.6452 6.57174 L 21.6468 6.57126 L 21.6484 6.57059 L 21.6499 6.56975 L 21.6512 6.56873 L 21.6525 6.56755 L 21.6536 6.56621 L 21.6546 6.56473 L 21.6555 6.56311 L 21.6562 6.56138 L 21.6568 6.55953 L 21.6572 6.55759 L 21.6574 6.55556 L 21.6575 6.55348 L 21.6574 6.55134 L 21.6571 6.54917 L 21.6567 6.54698 L 21.6562 6.5448 L 21.6555 6.54263 L 21.6546 6.54049 L 21.6536 6.53841 L 21.6524 6.53638 L 21.6512 6.53444 L 21.6498 6.5326 L 21.6483 6.53086 L 21.6467 6.52925 L 21.645 6.52777 L 21.6433 6.52644 L 21.6415 6.52526 L 21.6397 6.52425 L 21.6378 6.52342 L 21.636 6.52276 L 21.6341 6.52229 L 21.6322 6.52201 " style="fill:rgb(1,0,0); fill-opacity:0; stroke:rgb(220,48,35); stroke-opacity:0.6; stroke-width:0.022" />
<circle cx="21.636034" cy="6.547058" r="0.085000" style="fill:rgb(1,0,0); fill-opacity:0; stroke:rgb(220,48,35); stroke-opacity:1; stroke-width:0.045" id="grb-260802a" data-name="GRB 260802A / EP J223759.5+531421" data-kind="magnetar-burst-candidate" data-bands="optical,x-ray,gamma-ray" data-ra-deg="339.443100" data-dec-deg="53.219500" data-observer-altitude-deg="15.447146" data-source="https://gcn.nasa.gov/circulars/45270" data-uncertainty-deg="0.162000" data-observed-at="2026-08-02T09:23:10Z" data-age-days="2.692" />
</g>
<g id="labels">
<text x="20.715091" y="5.557348" font-family="Source Code Pro" font-size="0.170000pt" text-anchor="start" text-align="left" dominant-baseline="central" font-weight="400" font-style="normal"  style="fill:rgb(242,242,242); fill-opacity:0.95; stroke:rgb(25,25,112); stroke-opacity:0.75; stroke-width:0.01"> Cassiopeia A</text>
<text x="34.012510" y="11.092299" font-family="Source Code Pro" font-size="0.170000pt" text-anchor="start" text-align="left" dominant-baseline="central" font-weight="400" font-style="normal"  style="fill:rgb(242,242,242); fill-opacity:0.95; stroke:rgb(25,25,112); stroke-opacity:0.75; stroke-width:0.01"> Sagittarius A*</text>
<text x="2.012457" y="1.335653" font-family="Source Code Pro" font-size="0.170000pt" text-anchor="start" text-align="left" dominant-baseline="central" font-weight="400" font-style="normal"  style="fill:rgb(242,242,242); fill-opacity:0.95; stroke:rgb(25,25,112); stroke-opacity:0.75; stroke-width:0.01"> M87*</text>
<text x="25.783330" y="8.058828" font-family="Source Code Pro" font-size="0.170000pt" text-anchor="start" text-align="left" dominant-baseline="central" font-weight="400" font-style="normal"  style="fill:rgb(242,242,242); fill-opacity:0.95; stroke:rgb(25,25,112); stroke-opacity:0.75; stroke-width:0.01"> Cygnus X-1</text>
<text x="40.211211" y="8.112640" font-family="Source Code Pro" font-size="0.170000pt" text-anchor="start" text-align="left" dominant-baseline="central" font-weight="400" font-style="normal"  style="fill:rgb(242,242,242); fill-opacity:0.95; stroke:rgb(25,25,112); stroke-opacity:0.75; stroke-width:0.01"> Centaurus A</text>
<text x="0.105337" y="1.797297" font-family="Source Code Pro" font-size="0.170000pt" text-anchor="start" text-align="left" dominant-baseline="central" font-weight="400" font-style="normal"  style="fill:rgb(242,242,242); fill-opacity:0.95; stroke:rgb(25,25,112); stroke-opacity:0.75; stroke-width:0.01"> 3C 273</text>
<text x="6.645100" y="6.728493" font-family="Source Code Pro" font-size="0.170000pt" text-anchor="start" text-align="left" dominant-baseline="central" font-weight="400" font-style="normal"  style="fill:rgb(242,242,242); fill-opacity:0.95; stroke:rgb(25,25,112); stroke-opacity:0.75; stroke-width:0.01"> Sun</text>
<text x="8.562752" y="8.090900" font-family="Source Code Pro" font-size="0.170000pt" text-anchor="start" text-align="left" dominant-baseline="central" font-weight="400" font-style="normal"  style="fill:rgb(242,242,242); fill-opacity:0.95; stroke:rgb(25,25,112); stroke-opacity:0.75; stroke-width:0.01"> Mercury</text>
<text x="1.014664" y="3.338529" font-family="Source Code Pro" font-size="0.170000pt" text-anchor="start" text-align="left" dominant-baseline="central" font-weight="400" font-style="normal"  style="fill:rgb(242,242,242); fill-opacity:0.95; stroke:rgb(25,25,112); stroke-opacity:0.75; stroke-width:0.01"> Venus</text>
<text x="7.140819" y="7.035951" font-family="Source Code Pro" font-size="0.170000pt" text-anchor="start" text-align="left" dominant-baseline="central" font-weight="400" font-style="normal"  style="fill:rgb(242,242,242); fill-opacity:0.95; stroke:rgb(25,25,112); stroke-opacity:0.75; stroke-width:0.01"> Jupiter</text>
<text x="40.475217" y="3.520150" font-family="Source Code Pro" font-size="0.170000pt" text-anchor="start" text-align="left" dominant-baseline="central" font-weight="400" font-style="normal"  style="fill:rgb(242,242,242); fill-opacity:0.95; stroke:rgb(25,25,112); stroke-opacity:0.75; stroke-width:0.01"> 433 Eros (A898 PA)</text>
<text x="3.031585" y="4.596260" font-family="Source Code Pro" font-size="0.170000pt" text-anchor="start" text-align="left" dominant-baseline="central" font-weight="400" font-style="normal"  style="fill:rgb(242,242,242); fill-opacity:0.95; stroke:rgb(25,25,112); stroke-opacity:0.75; stroke-width:0.01"> 99942 Apophis (2004 MN4)</text>
<text x="34.740597" y="9.749810" font-family="Source Code Pro" font-size="0.170000pt" text-anchor="start" text-align="left" dominant-baseline="central" font-weight="400" font-style="normal"  style="fill:rgb(242,242,242); fill-opacity:0.95; stroke:rgb(25,25,112); stroke-opacity:0.75; stroke-width:0.01"> 67P/Churyumov-Gerasimenko</text>
<text x="18.486398" y="2.785370" font-family="Source Code Pro" font-size="0.170000pt" text-anchor="start" text-align="left" dominant-baseline="central" font-weight="400" font-style="normal"  style="fill:rgb(242,242,242); fill-opacity:0.95; stroke:rgb(25,25,112); stroke-opacity:0.75; stroke-width:0.01"> GRB 260803A</text>
<text x="21.761034" y="6.547058" font-family="Source Code Pro" font-size="0.170000pt" text-anchor="start" text-align="left" dominant-baseline="central" font-weight="400" font-style="normal"  style="fill:rgb(242,242,242); fill-opacity:0.95; stroke:rgb(25,25,112); stroke-opacity:0.75; stroke-width:0.01"> GRB 260802A / EP J223759.5+531421</text>
</g>
</svg>

