<svg xml:space="preserve"
     xmlns="http://www.w3.org/2000/svg"
     xmlns:xlink="http://www.w3.org/1999/xlink"
     xmlns:html="http://www.w3.org/1999/xhtml"
id="geometry-voronoi-44-22.916667" x="0px" y="0px"
width="44.000000px" height="22.916667px"
viewBox="0 0 44.000000 22.916667" enable-background="new 0 0 44.000000 22.916667" role="img">
s
<title>
geometry-voronoi-44-22.916667
</title>
<desc>
Voronoi native projection geometry
</desc>
<g id="triangular-faces">
<path id="triangular-face-1" d="M 4.01879 1.07688 L 8.01461 7.99785 L 0.0229652 7.99785 Z" style="fill:rgb(242,242,242); fill-opacity:0.55; stroke:rgb(128,128,128); stroke-opacity:0.6; stroke-width:0.04" />
<path id="triangular-face-2" d="M 12.0104 1.07688 L 16.0063 7.99785 L 8.01461 7.99785 Z" style="fill:rgb(242,242,242); fill-opacity:0.55; stroke:rgb(128,128,128); stroke-opacity:0.6; stroke-width:0.04" />
<path id="triangular-face-3" d="M 20.0021 1.07688 L 23.9979 7.99785 L 16.0063 7.99785 Z" style="fill:rgb(242,242,242); fill-opacity:0.55; stroke:rgb(128,128,128); stroke-opacity:0.6; stroke-width:0.04" />
<path id="triangular-face-4" d="M 27.9937 1.07688 L 31.9896 7.99785 L 23.9979 7.99785 Z" style="fill:rgb(242,242,242); fill-opacity:0.55; stroke:rgb(128,128,128); stroke-opacity:0.6; stroke-width:0.04" />
<path id="triangular-face-5" d="M 35.9854 1.07688 L 39.9812 7.99785 L 31.9896 7.99785 Z" style="fill:rgb(242,242,242); fill-opacity:0.55; stroke:rgb(128,128,128); stroke-opacity:0.6; stroke-width:0.04" />
<path id="triangular-face-6" d="M 4.01879 14.9188 L 0.0229652 7.99785 L 8.01461 7.99785 Z" style="fill:rgb(242,242,242); fill-opacity:0.55; stroke:rgb(128,128,128); stroke-opacity:0.6; stroke-width:0.04" />
<path id="triangular-face-7" d="M 8.01461 7.99785 L 12.0104 14.9188 L 4.01879 14.9188 Z" style="fill:rgb(242,242,242); fill-opacity:0.55; stroke:rgb(128,128,128); stroke-opacity:0.6; stroke-width:0.04" />
<path id="triangular-face-8" d="M 12.0104 14.9188 L 8.01461 7.99785 L 16.0063 7.99785 Z" style="fill:rgb(242,242,242); fill-opacity:0.55; stroke:rgb(128,128,128); stroke-opacity:0.6; stroke-width:0.04" />
<path id="triangular-face-9" d="M 16.0063 7.99785 L 20.0021 14.9188 L 12.0104 14.9188 Z" style="fill:rgb(242,242,242); fill-opacity:0.55; stroke:rgb(128,128,128); stroke-opacity:0.6; stroke-width:0.04" />
<path id="triangular-face-10" d="M 20.0021 14.9188 L 16.0063 7.99785 L 23.9979 7.99785 Z" style="fill:rgb(242,242,242); fill-opacity:0.55; stroke:rgb(128,128,128); stroke-opacity:0.6; stroke-width:0.04" />
<path id="triangular-face-11" d="M 23.9979 7.99785 L 27.9937 14.9188 L 20.0021 14.9188 Z" style="fill:rgb(242,242,242); fill-opacity:0.55; stroke:rgb(128,128,128); stroke-opacity:0.6; stroke-width:0.04" />
<path id="triangular-face-12" d="M 27.9937 14.9188 L 23.9979 7.99785 L 31.9896 7.99785 Z" style="fill:rgb(242,242,242); fill-opacity:0.55; stroke:rgb(128,128,128); stroke-opacity:0.6; stroke-width:0.04" />
<path id="triangular-face-13" d="M 31.9896 7.99785 L 35.9854 14.9188 L 27.9937 14.9188 Z" style="fill:rgb(242,242,242); fill-opacity:0.55; stroke:rgb(128,128,128); stroke-opacity:0.6; stroke-width:0.04" />
<path id="triangular-face-14" d="M 35.9854 14.9188 L 31.9896 7.99785 L 39.9812 7.99785 Z" style="fill:rgb(242,242,242); fill-opacity:0.55; stroke:rgb(128,128,128); stroke-opacity:0.6; stroke-width:0.04" />
<path id="triangular-face-15" d="M 39.9812 7.99785 L 43.977 14.9188 L 35.9854 14.9188 Z" style="fill:rgb(242,242,242); fill-opacity:0.55; stroke:rgb(128,128,128); stroke-opacity:0.6; stroke-width:0.04" />
<path id="triangular-face-16" d="M 8.01461 21.8398 L 4.01879 14.9188 L 12.0104 14.9188 Z" style="fill:rgb(242,242,242); fill-opacity:0.55; stroke:rgb(128,128,128); stroke-opacity:0.6; stroke-width:0.04" />
<path id="triangular-face-17" d="M 16.0063 21.8398 L 12.0104 14.9188 L 20.0021 14.9188 Z" style="fill:rgb(242,242,242); fill-opacity:0.55; stroke:rgb(128,128,128); stroke-opacity:0.6; stroke-width:0.04" />
<path id="triangular-face-18" d="M 23.9979 21.8398 L 20.0021 14.9188 L 27.9937 14.9188 Z" style="fill:rgb(242,242,242); fill-opacity:0.55; stroke:rgb(128,128,128); stroke-opacity:0.6; stroke-width:0.04" />
<path id="triangular-face-19" d="M 31.9896 21.8398 L 27.9937 14.9188 L 35.9854 14.9188 Z" style="fill:rgb(242,242,242); fill-opacity:0.55; stroke:rgb(128,128,128); stroke-opacity:0.6; stroke-width:0.04" />
<path id="triangular-face-20" d="M 39.9812 21.8398 L 35.9854 14.9188 L 43.977 14.9188 Z" style="fill:rgb(242,242,242); fill-opacity:0.55; stroke:rgb(128,128,128); stroke-opacity:0.6; stroke-width:0.04" />
</g>
<g id="quadrants">
<path id="quadrant-1" d="M 0 0 L 11 0 L 11 22.9167 L 0 22.9167 Z" style="fill:rgb(1,0,0); fill-opacity:0; stroke:rgb(0,0,255); stroke-opacity:0.65; stroke-width:0.08" />
<path id="quadrant-2" d="M 11 0 L 22 0 L 22 22.9167 L 11 22.9167 Z" style="fill:rgb(1,0,0); fill-opacity:0; stroke:rgb(0,0,255); stroke-opacity:0.65; stroke-width:0.08" />
<path id="quadrant-3" d="M 22 0 L 33 0 L 33 22.9167 L 22 22.9167 Z" style="fill:rgb(1,0,0); fill-opacity:0; stroke:rgb(0,0,255); stroke-opacity:0.65; stroke-width:0.08" />
<path id="quadrant-4" d="M 33 0 L 44 0 L 44 22.9167 L 33 22.9167 Z" style="fill:rgb(1,0,0); fill-opacity:0; stroke:rgb(0,0,255); stroke-opacity:0.65; stroke-width:0.08" />
</g>
</svg>

